<?xml version="1.0" encoding="utf-8" ?>
<svg baseProfile="full" height="300mm" version="1.1" viewBox="0,0,200,300" width="200mm" xmlns="http://www.w3.org/2000/svg" xmlns:ev="http://www.w3.org/2001/xml-events" xmlns:xlink="http://www.w3.org/1999/xlink"><defs /><rect fill="#222222" height="300" width="200" x="0" y="0" /><text fill="#FFFFFF" style="font-size:12px; font-family:Arial; font-weight:bold;" x="10" y="20">Over 1km Runs</text><text fill="#FFFFFF" style="font-size:4px; font-family:Arial" x="10" y="280">ATHLETE</text><text fill="#FFFFFF" style="font-size:9px; font-family:Arial" x="10" y="290">InzamZ</text><text fill="#FFFFFF" style="font-size:4px; font-family:Arial" x="120" y="280">STATISTICS</text><text fill="#FFFFFF" style="font-size:3px; font-family:Arial" x="120" y="285">Number: 3</text><text fill="#FFFFFF" style="font-size:3px; font-family:Arial" x="120" y="290">Weekly: 3.0</text><text fill="#FFFFFF" style="font-size:3px; font-family:Arial" x="141" y="285">Total: 12.3 km</text><text fill="#FFFFFF" style="font-size:3px; font-family:Arial" x="141" y="290">Avg: 4.1 km</text><text fill="#FFFFFF" style="font-size:3px; font-family:Arial" x="167" y="285">Min: 4.0 km</text><text fill="#FFFFFF" style="font-size:3px; font-family:Arial" x="167" y="290">Max: 4.2 km</text><polyline fill="none" points="49.544437965378165,99.88565049273893 45.767510402947664,102.32539601344615 46.606827637180686,107.69283171417192 50.803413819521666,110.62052133632824 55.41965861804783,112.08436546614394 60.87522065266967,111.10846942989156 68.8487343993038,106.71693476848304 71.78634472377598,102.81334496522322 74.72395505197346,97.44590370729566 75.56327228620648,93.54230622621253 76.4025895241648,57.43387623131275 75.98293090611696,51.57842907961458 74.30429643206298,46.69888423010707 71.3666861075908,41.81933432677761 62.55385512672365,35.96386777469888 57.09829309023917,35.47591190086678 52.062389673665166,35.96386777469888 47.026486257091165,37.91569076757878 42.829900074750185,40.843423740938306 39.052972512319684,44.74706487543881 36.53502080403268,48.65070277545601 35.27604494988918,53.53024560539052 34.85638633184135,59.38569033006206 34.01706909574568,64.75317493733019 34.85638633184135,69.6327010942623 33.597410475835204,86.22305223206058 34.436727713793516,91.59050627145916 34.01706909574568,96.95795419951901 35.69570356793702,102.32539601344615 41.15126560255885,111.59641747362912 52.062389673665166,115.5 57.517951708287,115.5 66.75044130720198,110.62052133632824 70.52736886963248,108.18078011041507 73.46497919782996,103.78924271930009 75.1436136700213,98.90975192934275 75.56327228620648,93.54230622621253 75.98293090611696,53.53024560539052 75.1436136700213,48.65070277545601 72.62566195987165,43.77115489449352 65.91112407110631,36.9397793719545 55.83931723609567,34.98795597534627 49.964096583426,35.96386777469888 41.570924220606685,41.81933432677761 38.21365527436137,46.21092946641147 36.11536218598485,51.0904748220928 34.85638633184135,61.825456818100065 34.85638633184135,66.70498600648716 36.11536218598485,72.56041436176747 35.27604494988918,77.92788396356627 35.69570356793702,99.39770123595372 36.95467942021787,103.78924271930009 40.311948366463184,108.18078011041507 44.928193166852,111.59641747362912 48.7051207292825,113.54820914193988 53.741024143993855,114.03615693189204 59.19658618234098,113.54820914193988 64.65214821510017,112.08436546614394 68.42907577939332,109.644624998793 75.1436136700213,102.32539601344615 75.98293090611696,97.44590370729566 75.56327228620648,87.19895342132077 76.4025895241648,66.70498600648716 76.4025895241648,52.06638328637928 74.72395505197346,46.21092946641147 67.58975854329765,38.40364638902247 56.678634472191334,34.5 51.64273105561733,35.47591190086678 41.15126560255885,47.186838943045586 39.052972512319684,55.48206132091582 38.63331389427185,76.95198085485026 39.47263113036752,82.31944545404986 39.052972512319684,92.56640634918585 38.21365527436137,96.95795419951901 42.829900074750185,105.25308897020295 46.606827637180686,108.18078011041507 51.64273105561733,110.13257319293916 57.09829309023917,111.59641747362912 66.75044130720198,106.71693476848304 72.20600334368646,98.42180257290602 71.78634472377598,88.66280482616276 73.04532057791948,83.29534745309502 72.20600334368646,53.04229154903442 70.94702748768032,48.162748215254396 67.58975854329765,44.259109910577536 63.39317236095667,41.331379058770835 58.7769275624305,39.37955748103559 53.741024143993855,39.37955748103559 49.12477934733033,40.843423740938306 45.34785178489983,43.283199827652425 41.570924220606685,48.162748215254396 39.47263113036752,53.04229154903442 39.052972512319684,63.28931610612199 39.47263113036752,69.14474870497361 37.79399666003883,74.02427031472325 36.95467942021787,79.39173824805766 39.47263113036752,99.88565049273893 41.570924220606685,103.78924271930009 44.928193166852,107.2048832657747 49.544437965378165,110.13257319293916 55.41965861804783,111.10846942989156 60.035903416574,110.13257319293916 65.07180683501065,107.2048832657747 68.8487343993038,103.78924271930009 71.3666861075908,99.39770123595372 72.20600334368646,95.00615565991029 71.78634472377598,70.12065343139693 72.62566195987165,54.9941074680537 68.42907577939332,45.23501978907734 65.07180683501065,41.331379058770835 60.87522065266967,38.89160195970908 50.803413819521666,40.35546836955473 45.767510402947664,42.795244711916894 39.052972512319684,51.57842907961458 38.21365527436137,66.21703331451863 39.052972512319684,86.22305223206058 38.21365527436137,96.95795419951901 40.311948366463184,101.83744700951502 43.24955869279802,105.74103762069717 47.026486257091165,108.66872845636681 52.062389673665166,110.62052133632824 62.134196508675814,109.644624998793 67.17009992524981,107.2048832657747 72.62566195987165,98.42180257290602 72.20600334368646,58.89773688139394 70.94702748768032,49.13865728629753 68.42907577939332,45.23501978907734 59.61624480038881,39.8675129506737 49.964096583426,38.40364638902247 41.99058283865452,45.722974652424455 39.89228974841535,50.114566155243665 39.052972512319684,54.50615356536582 39.052972512319684,64.26522204466164 37.79399666003883,74.5122221969068 38.21365527436137,78.90378687065095 38.21365527436137,95.00615565991029 39.89228974841535,100.37359969737008 42.829900074750185,104.27719151973724 46.18716901913285,107.69283171417192 50.38375520147383,109.644624998793 55.41965861804783,111.10846942989156 60.45556203648448,110.13257319293916 68.8487343993038,104.7651402708143 71.78634472377598,100.37359969737008 73.46497919782996,95.49410537071526 72.62566195987165,85.73510156106204 72.20600334368646,54.50615356536582 70.94702748768032,49.626611745450646 68.00941716134548,45.722974652424455 64.23248960077763,42.30728954356164 59.61624480038881,40.35546836955473 54.16068276390433,39.8675129506737 49.544437965378165,40.35546836955473 44.928193166852,43.283199827652425 41.570924220606685,47.186838943045586 39.052972512319684,52.06638328637928 38.21365527436137,62.80136306025088 38.21365527436137,95.49410537071526 39.052972512319684,99.88565049273893 44.088875928893685,108.66872845636681 53.741024143993855,111.10846942989156 58.35726894438267,110.62052133632824 63.39317236095667,108.66872845636681 67.58975854329765,105.74103762069717 70.52736886963248,101.83744700951502 72.20600334368646,97.44590370729566 72.62566195987165,91.59050627145916 72.20600334368646,71.0965579552576 71.78634472377598,66.70498600648716 71.78634472377598,51.0904748220928 70.10771025158465,46.21092946641147 65.91112407110631,42.30728954356164 62.134196508675814,39.8675129506737 57.09829309023917,38.89160195970908 52.062389673665166,38.89160195970908 47.44614487327635,40.843423740938306 43.6692173127085,43.77115489449352 41.15126560255885,48.65070277545601 39.47263113036752,54.01819960959256 37.79399666003883,76.95198085485026 38.21365527436137,81.83149437978864 37.79399666003883,87.68690394004807 39.052972512319684,98.42180257290602 44.928193166852,107.69283171417192 49.12477934733033,109.15667675249279 53.741024143993855,110.62052133632824 58.35726894438267,111.10846942989156 63.39317236095667,109.15667675249279 66.75044130720198,106.22898621903732 70.10771025158465,101.83744700951502 73.04532057791948,91.59050627145916 71.3666861075908,75.48812581179664 71.78634472377598,55.48206132091582 70.94702748768032,50.60252051521093 68.8487343993038,46.21092946641147 65.49146545305848,42.795244711916894 61.29487927258015,39.8675129506737 52.062389673665166,39.37955748103559 47.026486257091165,40.843423740938306 43.24955869279802,44.74706487543881 40.311948366463184,48.65070277545601 38.21365527436137,53.53024560539052 39.052972512319684,73.53631838038564 38.21365527436137,78.90378687065095 39.052972512319684,88.66280482616276 38.63331389427185,94.03025608789176 39.052972512319684,98.42180257290602 41.15126560255885,103.78924271930009 44.928193166852,107.2048832657747 49.964096583426,109.644624998793 54.16068276390433,110.62052133632824 59.19658618234098,110.13257319293916 63.81283098086715,108.18078011041507 70.52736886963248,100.37359969737008 72.20600334368646,95.49410537071526 72.20600334368646,50.60252051521093 69.68805163353682,46.21092946641147 65.49146545305848,42.30728954356164 61.71453789062798,39.8675129506737 51.223072435706854,40.35546836955473 42.410241458565,45.722974652424455 40.73160698451102,50.60252051521093 41.15126560255885,54.9941074680537 40.311948366463184,59.38569033006206 41.99058283865452,74.02427031472325 41.99058283865452,78.41583544155583" stroke="#4dd2ff" stroke-linecap="round" stroke-linejoin="round" stroke-width="0.5"><title>2022-04-13 4.2km</title></polyline><polyline fill="none" points="129.16742568090558,101.75464294524863 146.0555049534887,113.045474877581 162.94358422607183,104.70007995469496 167.16560404375196,54.62740193819627 166.32120008207858,44.80916776508093 153.2329386435449,34.5 128.32302171736956,44.31825552275404 122.41219397261739,99.79101725621149 142.25568711943924,115.5 162.0991802625358,108.6273264545016 166.74340206198394,98.80920410715044 167.5878060273826,53.64557943539694 160.41037233546376,39.409130302257836 150.27752477116883,35.972739623859525 127.47861775383353,46.28190418612212 123.67879991792142,98.3182974550873 141.8334851358086,114.51819010311738 157.45495846308768,112.06366447219625 165.89899809844792,99.79101725621149 166.74340206198394,52.663756729569286 159.56596837192774,39.409130302257836 149.85532279126346,36.954565786290914 126.63421379216015,45.30007995525375 130.43403162620962,100.28192375600338 143.10009108111262,109.60913757095113 160.83257431536913,100.28192375600338 163.36578620783985,52.17284529982135 157.45495846308768,42.84551848983392 141.8334851358086,40.39095575129613 130.43403162620962,51.68193382071331 129.16742568090558,99.30011070659384 142.6778890993446,111.08185386378318 160.41037233546376,103.22736167907715 164.21019017137587,54.136490711476654 151.12192873470485,38.42730464832857 131.2784355916083,49.227375658694655 129.5896276626736,95.8637634376064 141.41128315217793,110.59094848437235 157.45495846308768,107.15460939891636 162.94358422607183,98.3182974550873 164.21019017137587,51.19102228991687 144.36669702641666,37.93639174569398 129.5896276626736,52.17284529982135 129.5896276626736,98.3182974550873 146.47770693525672,111.57275919336826 162.52138224430382,95.8637634376064 162.0991802625358,50.70011070976034 145.6333029717207,38.91821750020608 130.01182964630425,49.71828739205375 128.32302171736956,94.88194947410375 135.5004554092884,108.6273264545016 151.54413071647286,110.59094848437235 162.0991802625358,99.30011070659384 162.52138224430382,54.136490711476654 151.96633270010352,39.409130302257836 133.3894454985857,45.30007995525375 131.2784355916083,105.19098594551906 139.30027324520051,110.10004305373877 154.4995445907116,106.66370361112058 162.0991802625358,83.10016606003046 159.14376639015973,45.790992095600814 146.47770693525672,39.900043052155524 133.3894454985857,46.772816225886345 127.47861775383353,91.93650636542588 135.92265739105642,108.13642082037404 149.0109188258648,110.59094848437235 160.83257431536913,103.22736167907715 161.67697828263044,68.37289562122896" stroke="#4dd2ff" stroke-linecap="round" stroke-linejoin="round" stroke-width="0.5"><title>2022-04-12 4.0km</title></polyline><polyline fill="none" points="39.58962766267359,252.24554924108088 42.967243518680334,257.15460939891636 46.76706135459244,260.59094848437235 50.98908117227256,262.5545696998015 56.05550495348871,263.045474877581 61.1219287365675,262.5545696998015 65.76615053601563,260.59094848437235 69.56596837192774,258.6273264545016 73.36578620783985,255.19098594551906 75.89899809844792,250.77283020317554 77.16560404375196,245.8637634376064 78.01000800915062,236.0456146588549 77.16560404375196,230.64562416542321 77.58780602551997,204.62740193819627 76.74340206384659,195.30007995525375 73.36578620783985,191.37278100010008 63.655140625312924,184.5 59.01091882586479,185.97273962385952 54.78889900818467,185.48182646743953 50.14467720873654,185.48182646743953 38.74522369913757,194.31825552275404 36.212011808529496,198.7364638731815 36.212011808529496,204.13649071147665 34.94540586322546,208.55468991352245 34.52320388145745,219.84562472486869 32.8343959543854,224.7547184289433 31.567790009081364,234.08198246452957 32.8343959543854,244.39104241738096 32.41219397261739,250.28192375600338 38.3230217192322,258.6273264545016 42.54504153504968,262.5545696998015 52.677889101207256,265.5 61.544130716472864,264.5181901031174 72.09918026439846,259.1182320374064 77.16560404375196,249.30011070659384 77.16560404375196,243.90013530896977 78.43220998905599,238.00924604199827 77.16560404375196,212.97288499819115 77.58780602551997,203.64557943539694 77.16560404375196,198.24555203784257 70.41037233546376,189.90004305215552 60.27752477303147,186.4636527299881 49.300273245200515,186.9545657862909 43.81164748035371,189.40913030225784 37.47861775383353,196.28190418612212 35.78980982862413,201.6819338207133 34.52320388145745,211.99106422392651 34.52320388145745,227.70017221197486 33.678799917921424,233.59107428928837 33.678799917921424,238.50015375949442 34.52320388145745,243.40922814887017 33.678799917921424,248.80920410715044 38.3230217192322,257.15460939891636 42.12283955514431,260.59094848437235 46.76706135459244,263.5363800046034 52.2556871175766,265.0090950760059 56.89990891702473,264.5181901031174 67.45495846308768,262.06366447219625 74.21019017137587,254.70007995469496 76.32120008021593,250.28192375600338 77.58780602551997,234.08198246452957 76.32120008021593,223.77290009474382 77.16560404375196,218.37289562122896 77.16560404375196,202.6637567295693 72.94358422607183,193.82734322873875 69.98817035369575,189.90004305215552 64.4995445907116,189.40913030225784 59.85532279126346,187.44547879090533 50.14467720873654,187.44547879090533 45.078253427520394,188.42730464832857 36.63421379029751,195.30007995525375 35.78980982862413,211.50015376135707 34.52320388145745,215.91834610141814 34.94540586322546,220.3365343241021 37.47861775383353,229.66380705032498 40.85623360797763,250.77283020317554 44.65605144388974,255.6818918841891 48.455869279801846,258.6273264545016 53.522293062880635,260.1000430537388 58.588716845959425,260.1000430537388 63.655140625312924,258.6273264545016 68.2993624266237,255.19098594551906 70.83257431723177,250.77283020317554 72.09918026439846,245.3728564819321 73.36578620783985,234.5728905890137 73.36578620783985,218.37289562122896 74.63239215314388,208.06377909518778 73.78798818960786,202.17284529982135 71.6769782807678,196.77281622588634 67.87716044485569,192.84551848983392 63.23293864540756,190.88186840247363 52.2556871175766,190.39095575129613 46.76706135459244,192.84551848983392 42.54504153504968,197.2637282148935 40.43403162807226,202.17284529982135 39.58962766267359,223.28199085174128 39.16742568090558,249.30011070659384 40.85623360797763,253.71826782263815 43.81164748035371,257.6455151345581 53.10009108111262,261.57275919336826 61.966332698240876,260.1000430537388 66.61055449768901,257.15460939891636 70.41037233546376,253.22736167907715 72.52138224430382,248.3182974550873 72.94358422607183,243.40922814887017 72.52138224430382,238.50015375949442 73.36578620783985,213.95470557035878 72.94358422607183,208.55468991352245 74.21019017137587,204.13649071147665 73.36578620783985,199.22737565869465 70.41037233546376,194.31825552275404 66.61055449768901,190.88186840247363 61.1219287365675,188.91821750020608 55.633302971720695,187.93639174569398 47.18926333449781,192.35460604308173 41.27843558974564,199.22737565869465 40.011829644441605,204.62740193819627 39.16742568090558,219.84562472486869 40.011829644441605,235.0637986632064 39.58962766267359,245.8637634376064 41.27843558974564,251.26373659959063 43.81164748035371,255.6818918841891 47.61146531812847,259.1182320374064 51.83348513394594,261.0818538637832 62.38853468187153,260.1000430537388 67.45495846308768,257.6455151345581 71.25477629713714,253.22736167907715 73.36578620783985,248.80920410715044 72.94358422607183,211.00924324756488 74.21019017137587,201.19102228991687 69.14376639015973,192.84551848983392 64.4995445907116,189.90004305215552 59.85532279126346,188.42730464832857 54.36669702641666,187.93639174569398 49.300273245200515,189.90004305215552 45.078253427520394,193.3364308839664 40.011829644441605,202.6637567295693 39.16742568090558,208.06377909518778 40.43403162807226,233.59107428928837 40.011829644441605,248.3182974550873 43.81164748035371,257.15460939891636 47.18926333449781,259.60913757095113 56.47770693525672,262.06366447219625 65.34394855238497,258.6273264545016 69.14376639015973,255.19098594551906 71.6769782807678,250.77283020317554 72.94358422607183,246.35467034298927 72.52138224430382,235.55470668710768 72.94358422607183,205.60922423563898 72.52138224430382,200.70011070976034 66.61055449768901,191.86369354696944 61.544130716472864,189.90004305215552 56.05550495348871,188.91821750020608 50.98908117227256,189.40913030225784 46.34485937282443,192.35460604308173 40.011829644441605,199.71828739205375 39.58962766267359,204.62740193819627 39.58962766267359,224.7547184289433 38.74522369913757,244.88194947410375 39.58962766267359,250.28192375600338 42.12283955514431,255.19098594551906 45.92265739105642,258.6273264545016 50.98908117227256,261.0818538637832 56.05550495348871,261.57275919336826 61.544130716472864,260.59094848437235 66.61055449768901,258.13642082037404 69.98817035369575,254.2091739140451 72.52138224430382,249.30011070659384 72.94358422607183,244.39104241738096 72.09918026439846,224.7547184289433 72.52138224430382,204.13649071147665 69.98817035369575,195.30007995525375 66.61055449768901,192.35460604308173 62.38853468187153,189.40913030225784 57.32211090065539,188.42730464832857 52.677889101207256,189.40913030225784 43.389445500448346,195.7909920956008 40.85623360797763,200.20919907605276 40.011829644441605,204.62740193819627 38.74522369913757,230.1547156330198 37.900819735601544,239.97287661070004 38.74522369913757,250.28192375600338 41.27843558974564,255.19098594551906 49.300273245200515,260.59094848437235 54.78889900818467,260.59094848437235 59.433120807632804,259.60913757095113 64.9217465724796,256.6637036111206 70.83257431723177,249.7910172562115 72.09918026439846,244.88194947410375 72.52138224430382,233.10016606003046 72.94358422607183,204.62740193819627 72.09918026439846,199.71828739205375 69.56596837192774,195.7909920956008 61.544130716472864,190.39095575129613 56.89990891702473,189.90004305215552 51.411283154040575,190.88186840247363 47.18926333449781,192.84551848983392 43.389445500448346,196.77281622588634 40.43403162807226,202.17284529982135 38.74522369913757,236.0456146588549 37.900819735601544,241.93650636542588 39.16742568090558,251.75464294524863 42.12283955514431,255.19098594551906 46.34485937282443,258.13642082037404 50.14467720873654,260.59094848437235 54.78889900818467,261.57275919336826 59.433120807632804,261.0818538637832 63.655140625312924,259.60913757095113 67.87716044485569,257.15460939891636 71.25477629713714,253.22736167907715 72.94358422607183,248.3182974550873 73.36578620783985,243.40922814887017 72.94358422607183,223.28199085174128 72.09918026439846,218.8638053741306" stroke="#4dd2ff" stroke-linecap="round" stroke-linejoin="round" stroke-width="0.5"><title>2022-04-12 4.1km</title></polyline></svg>