<?xml version="1.0" encoding="utf-8" ?>
<svg baseProfile="full" height="300mm" version="1.1" viewBox="0,0,200,300" width="200mm" xmlns="http://www.w3.org/2000/svg" xmlns:ev="http://www.w3.org/2001/xml-events" xmlns:xlink="http://www.w3.org/1999/xlink"><defs /><rect fill="#222222" height="300" width="200" x="0" y="0" /><text fill="#FFFFFF" style="font-size:12px; font-family:Arial; font-weight:bold;" x="10" y="20">Over 1km Runs</text><text fill="#FFFFFF" style="font-size:4px; font-family:Arial" x="10" y="280">ATHLETE</text><text fill="#FFFFFF" style="font-size:9px; font-family:Arial" x="10" y="290">InzamZ</text><text fill="#FFFFFF" style="font-size:4px; font-family:Arial" x="120" y="280">STATISTICS</text><text fill="#FFFFFF" style="font-size:3px; font-family:Arial" x="120" y="285">Number: 5</text><text fill="#FFFFFF" style="font-size:3px; font-family:Arial" x="120" y="290">Weekly: 1.7</text><text fill="#FFFFFF" style="font-size:3px; font-family:Arial" x="141" y="285">Total: 25.0 km</text><text fill="#FFFFFF" style="font-size:3px; font-family:Arial" x="141" y="290">Avg: 5.0 km</text><text fill="#FFFFFF" style="font-size:3px; font-family:Arial" x="167" y="285">Min: 4.0 km</text><text fill="#FFFFFF" style="font-size:3px; font-family:Arial" x="167" y="290">Max: 8.6 km</text><polyline fill="none" points="40.06175016053021,97.5556180709973 46.94207696989179,103.33335486939177 51.146721133962274,103.33335486939177 55.73360567353666,102.44447279116139 59.17376907914877,99.77782545192167 62.996172865852714,96.22229309054092 65.2896151356399,92.66675778338686 66.81857664883137,80.66680437792093 67.5830574054271,50.00010437192395 64.14289399981499,42.00005964143202 60.32049021497369,38.888927108142525 55.73360567353666,36.666688203811646 51.146721133962274,36.222240284085274 46.1775962151587,37.11113607650623 41.59071167372167,39.77782234642655 38.15054826810956,42.8889542366378 36.23934637568891,47.777871219906956 35.47486561909318,52.66678263572976 36.23934637568891,57.555688481312245 35.85710599832237,92.22231566160917 37.76830789074302,96.66673479648307 40.44399053789675,99.77782545192167 44.64863470196724,102.44447279116139 49.61775962077081,103.33335486939177 54.96912491880357,103.33335486939177 58.79152870364487,102.00003168266267 62.996172865852714,99.33338406821713 65.67185551300645,94.88896769518033 66.81857664883137,90.44454672001302 66.81857664883137,85.55567833315581 66.43633626960218,80.66680437792093 67.20081702806056,57.111242725048214 66.43633626960218,47.333424450829625 64.14289399981499,43.333401465788484 60.702730594202876,39.77782234642655 56.498086431995034,37.11113607650623 51.911201890558004,36.666688203811646 47.324317349120975,37.555583904031664 43.50191356614232,39.33337475033477 40.06175016053021,42.00005964143202 37.00382713228464,46.00008387118578 35.47486561909318,51.33344371011481 35.09262523986399,78.88903065072373 35.47486561909318,88.22233450738713 36.23934637568891,93.55564188584685 39.29726940393448,97.5556180709973 42.737432807683945,100.22226679092273 46.94207696989179,102.00003168266267 51.528961511328816,102.8889138540253 59.5560094602406,100.22226679092273 63.378413243219256,97.11117645725608 65.67185551300645,92.66675778338686 66.43633626960218,87.77789192600176 66.81857664883137,77.55569987092167 66.81857664883137,49.55565783334896 64.90737475641072,45.11118991905823 61.849451730027795,41.1111648613587 58.409288324415684,38.00003168405965 54.20464416220784,36.666688203811646 49.235519241541624,36.222240284085274 44.64863470196724,38.00003168405965 40.44399053789675,41.1111648613587 36.23934637568891,48.66676461882889 35.47486561909318,90.00010436959565 36.6215867549181,94.88896769518033 39.29726940393448,98.44450116157532 43.50191356614232,101.5555905289948 48.47103848494589,102.44447279116139 53.44016340561211,102.44447279116139 58.409288324415684,101.11114932922646 62.23169210739434,98.00005963910371 65.2896151356399,94.4445258048363 66.43633626960218,89.5556619730778 67.20081702806056,62.4445887603797 66.43633626960218,47.777871219906956 64.14289399981499,43.333401465788484 61.084970973432064,39.77782234642655 56.498086431995034,38.00003168405965 51.911201890558004,37.11113607650623 47.70655773021281,38.00003168405965 43.50191356614232,39.77782234642655 39.67950978130102,42.44450696092099 37.00382713228464,45.55563691817224 35.85710599832237,50.00010437192395 35.09262523986399,64.66681431839243 35.09262523986399,74.0001491010189 34.710384864360094,78.88903065072373 34.710384864360094,88.22233450738713 35.85710599832237,93.11119985720143 41.97295205295086,99.33338406821713 50.38224037736654,102.44447279116139 59.17376907914877,99.33338406821713 62.996172865852714,96.66673479648307 65.67185551300645,92.66675778338686 66.43633626960218,88.66677704220638 66.81857664883137,79.77791760535911 66.05409589223564,46.44453077716753 64.52513437718153,41.55561227351427 61.084970973432064,38.00003168405965 53.44016340561211,35.33334430959076 48.85327886417508,35.33334430959076 45.03087508119643,37.11113607650623 41.20847129635513,39.33337475033477 37.76830789074302,42.8889542366378 35.47486561909318,47.333424450829625 33.94590410590172,84.2223496241495 34.328144485130906,89.11121952999383 35.85710599832237,93.55564188584685 38.15054826810956,98.00005963910371 41.59071167372167,100.66670808242634 45.03087508119643,102.8889138540253 49.61775962077081,103.77779583865777 54.20464416220784,102.8889138540253 58.79152870364487,101.11114932922646 62.23169210739434,98.8889426374808 65.2896151356399,95.33340953895822 67.96529778279364,85.55567833315581 67.96529778279364,57.555688481312245 67.20081702806056,48.2223179419525 65.2896151356399,44.2222957839258 62.996172865852714,40.666717403102666 59.17376907914877,38.00003168405965 54.96912491880357,35.77779232012108 49.61775962077081,35.77779232012108 45.03087508119643,36.666688203811646 40.82623091712594,39.33337475033477 37.76830789074302,42.8889542366378 35.85710599832237,46.88897763704881 34.710384864360094,51.77789006475359 35.09262523986399,55.77790518198162 34.328144485130906,87.33344929944724 34.710384864360094,91.77787349559367 36.6215867549181,95.77785133756697 39.67950978130102,99.33338406821713 43.50191356614232,102.00003168266267 48.08879810757935,103.77779583865777 52.675682647153735,103.77779583865777 57.64480756595731,102.8889138540253 61.849451730027795,100.66670808242634 64.90737475641072,96.66673479648307 67.5830574054271,92.22231566160917 67.96529778279364,87.77789192600176 67.20081702806056,64.22236929973587 67.96529778279364,50.00010437192395 66.81857664883137,45.55563691817224 64.90737475641072,42.00005964143202 61.849451730027795,38.44447941891849 57.64480756595731,36.222240284085274 53.05792302638292,35.33334430959076 48.47103848494589,36.666688203811646 40.06175016053021,41.1111648613587 36.6215867549181,44.2222957839258 34.710384864360094,47.777871219906956 34.328144485130906,66.0001491010189 34.710384864360094,90.44454672001302 36.23934637568891,94.88896769518033 38.915029026567936,98.8889426374808 42.3551924303174,101.5555905289948 46.55983659438789,103.33335486939177 51.146721133962274,103.77779583865777 60.702730594202876,101.11114932922646 64.14289399981499,97.5556180709973 67.96529778279364,89.5556619730778 67.96529778279364,51.77789006475359 67.20081702806056,46.88897763704881 64.90737475641072,42.44450696092099 61.46721135079861,39.33337475033477 57.64480756595731,37.11113607650623 53.05792302638292,35.77779232012108 48.47103848494589,36.222240284085274 44.26639432273805,38.00003168405965 40.44399053789675,40.222269899211824 37.38606751151383,42.8889542366378 35.47486561909318,47.333424450829625 34.710384864360094,51.33344371011481 34.328144485130906,68.66681742481887 33.563663728535175,73.11126094916835 34.328144485130906,92.22231566160917 38.915029026567936,100.66670808242634 46.94207696989179,103.77779583865777 56.115846052765846,103.77779583865777 59.938249837607145,102.00003168266267 63.7606536205858,99.77782545192167 66.43633626960218,96.22229309054092 67.96529778279364,87.77789192600176 67.5830574054271,74.0001491010189 68.34753816202283,69.11126198386773 68.72977854125202,51.33344371011481 68.34753816202283,46.88897763704881 66.81857664883137,42.8889542366378 64.52513437718153,38.888927108142525 56.498086431995034,34.444448149297386 51.528961511328816,34.0 46.1775962151587,34.888896252028644 41.59071167372167,36.666688203811646 38.15054826810956,38.888927108142525 35.09262523986399,42.44450696092099 33.563663728535175,47.333424450829625 33.18142334930599,51.77789006475359 32.03470221348107,57.111242725048214 31.270221458747983,85.55567833315581 32.799182971939445,94.00008386885747 35.47486561909318,98.44450116157532 38.53278864733875,101.5555905289948 42.3551924303174,104.666677640751 52.29344226978719,106.0 56.498086431995034,105.5555592593737 61.084970973432064,103.33335486939177 65.2896151356399,100.22226679092273 67.96529778279364,96.22229309054092 69.49425929784775,91.77787349559367 69.49425929784775,58.00013419287279 69.49425929784775,53.55567502044141 68.34753816202283,49.55565783334896 64.14289399981499,50.00010437192395 56.498086431995034,54.4445672230795 43.88415394350886,65.55570422066376 41.97295205295086,69.11126198386773 40.82623091712594,82.44457736937329 39.67950978130102,86.88900662679225 37.76830789074302,90.44454672001302 37.76830789074302,94.88896769518033 40.82623091712594,99.33338406821713 44.26639432273805,101.11114932922646 48.47103848494589,102.44447279116139 53.822403782978654,102.44447279116139 62.23169210739434,98.44450116157532 65.67185551300645,94.4445258048363 67.5830574054271,90.88898902432993 67.5830574054271,48.2223179419525 64.90737475641072,43.77784864837304 61.084970973432064,39.77782234642655 56.498086431995034,37.555583904031664 47.324317349120975,37.11113607650623 42.737432807683945,39.33337475033477 38.915029026567936,42.00005964143202 36.23934637568891,46.44453077716753 34.710384864360094,54.4445672230795 35.09262523986399,68.66681742481887 33.94590410590172,82.88902050210163 34.328144485130906,87.77789192600176 35.09262523986399,92.22231566160917 37.00382713228464,96.66673479648307 44.64863470196724,102.44447279116139 48.85327886417508,103.33335486939177 53.822403782978654,102.8889138540253 58.027047945186496,101.11114932922646 62.613932486623526,98.8889426374808 65.2896151356399,94.88896769518033 66.81857664883137,90.88898902432993 67.5830574054271,86.00012114318088 67.20081702806056,81.11124769411981 67.20081702806056,61.555698215030134 66.81857664883137,47.777871219906956 65.2896151356399,43.333401465788484 62.23169210739434,39.77782234642655 54.20464416220784,35.77779232012108 49.61775962077081,35.77779232012108 45.41311545856297,37.11113607650623 41.59071167372167,39.33337475033477 38.15054826810956,42.00005964143202 35.85710599832237,46.00008387118578 34.710384864360094,50.44455086346716 33.94590410590172,63.77792423358187 34.328144485130906,68.22237281920388 33.563663728535175,72.66681680316105 33.94590410590172,90.44454672001302 35.47486561909318,95.33340953895822 38.15054826810956,98.8889426374808 41.59071167372167,101.5555905289948 45.79535583592951,103.77779583865777 50.38224037736654,105.11111847264692 59.938249837607145,102.00003168266267 63.7606536205858,98.8889426374808 66.43633626960218,95.33340953895822 67.96529778279364,91.33343128394336 67.96529778279364,86.88900662679225 67.96529778279364,63.77792423358187 68.34753816202283,58.00013419287279 67.96529778279364,49.11121125007048 64.14289399981499,40.666717403102666 61.084970973432064,38.00003168405965 57.262567188590765,36.222240284085274 53.44016340561211,34.888896252028644 44.26639432273805,36.666688203811646 40.06175016053021,39.33337475033477 36.6215867549181,42.8889542366378 34.328144485130906,47.777871219906956 33.94590410590172,52.22233637236059 34.328144485130906,70.00015096459538 33.563663728535175,74.88903706939891 33.563663728535175,88.66677704220638 34.328144485130906,92.66675778338686 35.47486561909318,97.11117645725608 42.737432807683945,102.8889138540253 46.55983659438789,104.22223676275462 50.76448075659573,105.5555592593737 59.17376907914877,103.33335486939177 66.05409589223564,97.5556180709973 67.5830574054271,93.11119985720143 67.96529778279364,89.11121952999383 66.81857664883137,48.66676461882889 65.67185551300645,44.66674287384376 63.378413243219256,40.666717403102666 59.938249837607145,38.00003168405965 55.35136529803276,36.666688203811646 46.94207696989179,36.222240284085274 42.737432807683945,37.555583904031664 37.00382713228464,44.66674287384376 35.47486561909318,49.11121125007048 34.710384864360094,53.11122885067016 34.328144485130906,92.22231566160917 35.85710599832237,96.22229309054092 38.915029026567936,99.77782545192167 42.3551924303174,102.00003168266267 46.94207696989179,103.77779583865777 51.146721133962274,104.22223676275462 55.73360567353666,104.22223676275462 59.938249837607145,102.44447279116139 63.378413243219256,99.77782545192167 65.67185551300645,96.22229309054092 67.5830574054271,91.77787349559367 67.96529778279364,50.88899731030688 64.52513437718153,42.44450696092099 58.027047945186496,37.11113607650623 53.822403782978654,36.666688203811646 49.61775962077081,37.11113607650623 41.97295205295086,41.1111648613587 38.915029026567936,44.66674287384376 37.00382713228464,48.66676461882889 36.23934637568891,66.88903872668743 37.38606751151383,87.77789192600176 37.00382713228464,91.77787349559367 41.20847129635513,98.8889426374808 45.03087508119643,101.11114932922646 48.85327886417508,101.5555905289948 53.05792302638292,101.5555905289948 57.262567188590765,100.22226679092273 60.702730594202876,98.00005963910371 65.67185551300645,91.33343128394336 66.43633626960218,87.33344929944724 66.05409589223564,82.88902050210163 66.81857664883137,78.88903065072373 66.05409589223564,74.88903706939891 66.81857664883137,60.666807485278696 66.43633626960218,51.33344371011481 65.2896151356399,46.44453077716753 62.996172865852714,42.44450696092099 55.35136529803276,36.666688203811646 51.528961511328816,37.555583904031664 47.324317349120975,37.11113607650623 43.11967318877578,38.888927108142525 39.67950978130102,41.55561227351427 36.6215867549181,45.11118991905823 35.47486561909318,49.11121125007048 34.710384864360094,62.889033964369446 34.328144485130906,80.66680437792093 35.47486561909318,94.4445258048363 37.76830789074302,98.00005963910371 40.82623091712594,100.66670808242634 44.64863470196724,102.8889138540253 48.85327886417508,104.22223676275462 53.822403782978654,104.22223676275462 62.23169210739434,100.22226679092273 65.67185551300645,96.66673479648307 67.20081702806056,92.66675778338686 67.5830574054271,88.22233450738713 67.5830574054271,48.66676461882889 66.05409589223564,44.66674287384376 63.378413243219256,40.666717403102666 59.5560094602406,38.00003168405965 54.96912491880357,36.222240284085274 50.38224037736654,36.222240284085274 46.55983659438789,37.11113607650623 42.3551924303174,39.33337475033477 38.915029026567936,42.44450696092099 36.6215867549181,46.44453077716753 35.47486561909318,50.44455086346716 35.09262523986399,54.88901325548068 34.710384864360094,90.88898902432993 35.85710599832237,94.88896769518033 38.53278864733875,98.8889426374808 41.97295205295086,102.00003168266267 46.1775962151587,103.77779583865777 50.76448075659573,104.22223676275462 59.17376907914877,102.00003168266267 62.996172865852714,99.77782545192167 65.67185551300645,96.22229309054092 67.20081702806056,92.22231566160917 67.96529778279364,83.77790662972257 67.5830574054271,79.33347415085882 68.34753816202283,74.88903706939891 67.5830574054271,70.44459538673982 67.96529778279364,61.555698215030134 67.20081702806056,56.6667969240807 65.2896151356399,47.777871219906956 63.378413243219256,43.77784864837304 61.084970973432064,40.666717403102666 56.88032681122422,38.00003168405965 51.911201890558004,36.666688203811646 47.70655773021281,37.11113607650623 43.50191356614232,39.33337475033477 37.00382713228464,46.44453077716753 35.47486561909318,69.11126198386773 35.85710599832237,78.88903065072373 35.47486561909318,83.33346358826384 36.6215867549181,87.77789192600176 36.6215867549181,91.77787349559367 37.76830789074302,95.77785133756697 40.82623091712594,99.33338406821713 44.26639432273805,101.5555905289948 48.85327886417508,102.44447279116139 53.822403782978654,102.44447279116139 58.027047945186496,101.5555905289948 61.46721135079861,99.33338406821713 64.14289399981499,95.77785133756697 66.05409589223564,90.88898902432993 66.43633626960218,86.4445639080368 65.67185551300645,48.66676461882889 63.7606536205858,44.2222957839258 61.084970973432064,40.666717403102666 53.44016340561211,37.11113607650623 44.64863470196724,38.44447941891849 38.53278864733875,43.77784864837304 36.6215867549181,48.66676461882889 35.09262523986399,89.11121952999383 35.85710599832237,93.11119985720143 37.38606751151383,97.11117645725608 40.82623091712594,100.22226679092273 44.26639432273805,102.00003168266267 48.85327886417508,102.8889138540253 53.05792302638292,102.44447279116139 57.262567188590765,101.5555905289948 60.702730594202876,98.8889426374808 64.14289399981499,95.33340953895822 65.67185551300645,91.33343128394336 64.90737475641072,82.00013419147581 66.05409589223564,77.55569987092167 66.43633626960218,64.22236929973587 68.34753816202283,60.222362050786614 69.11201891861856,55.77790518198162 69.11201891861856,51.33344371011481 68.34753816202283,47.333424450829625 66.81857664883137,43.333401465788484 63.7606536205858,39.33337475033477 60.32049021497369,36.222240284085274 56.88032681122422,34.444448149297386 52.29344226978719,34.0 47.70655773021281,34.444448149297386 43.88415394350886,35.33334430959076 36.6215867549181,41.1111648613587 34.328144485130906,45.11118991905823 32.799182971939445,49.55565783334896 32.41694259271026,82.44457736937329 30.505740700289607,86.4445639080368" stroke="#ff0000" stroke-linecap="round" stroke-linejoin="round" stroke-width="0.5"><title>2022-04-26 8.6km</title></polyline><polyline fill="none" points="138.67263386026025,96.78055605851114 142.8260014448315,98.53664216445759 146.60179015807807,102.04881219333038 150.75515774078667,103.36587520502508 154.5309464558959,103.36587520502508 159.43947178125381,101.60979109909385 163.21526049263775,99.41468494478613 166.23589146509767,95.02446922566742 167.74620694853365,90.63424896122888 168.50136469304562,82.29281793674454 168.1237858198583,65.17088178638369 168.87894356250763,55.07329728640616 167.36862807907164,45.8537426115945 165.1031548511237,41.90249875653535 162.08252388052642,38.39027890609577 158.30673516727984,36.19514002185315 153.39820984192193,34.87805614480749 148.86726338602602,35.317084149923176 141.31568595953286,37.951251219492406 137.16231837682426,40.58541665226221 134.141687406227,44.975688739679754 132.63137192092836,48.92692973045632 132.2537930496037,52.87816703924909 131.49863530695438,91.95131551800296 136.02958176285028,99.41468494478613 138.67263386026025,102.48783324286342 143.20358031615615,105.12195858219638 147.3569479007274,105.56097931414843 156.41884081065655,104.68293780647218 164.7255759779364,99.41468494478613 167.36862807907164,95.02446922566742 168.50136469304562,85.80500142043456 167.74620694853365,76.58551356894895 167.36862807907164,61.658681210596114 168.1237858198583,52.43914085440338 167.74620694853365,47.60984980966896 165.4807337205857,43.219580450095236 162.46010275185108,39.707361690700054 158.6843140386045,36.634167889133096 154.1533675827086,34.87805614480749 149.24484225735068,34.0 139.4277916047722,37.073195710778236 136.02958176285028,40.146389194298536 131.12105643562973,47.60984980966896 131.87621417827904,56.39037489006296 131.12105643562973,60.780630610883236 131.87621417827904,70.43917719647288 131.87621417827904,75.26844223868102 133.00895079225302,79.65867841336876 131.49863530695438,84.0489100413397 131.49863530695438,88.00011462019756 133.00895079225302,92.3903376115486 135.27442401833832,97.2195776537992 138.67263386026025,101.17076995968819 143.20358031615615,103.80489611718804 148.1121056433767,105.12195858219638 152.26547322794795,105.56097931414843 159.81705065257847,102.92685424722731 165.4807337205857,95.46349100163206 167.74620694853365,91.07327119167894 168.1237858198583,87.12206947663799 168.1237858198583,57.7074520830065 168.50136469304562,53.75621927483007 168.1237858198583,48.487903136294335 166.99104920588434,44.536661736667156 163.5928393639624,40.58541665226221 160.19462952390313,37.512223488651216 155.66368306986988,35.75611210800707 150.377578869462,34.87805614480749 146.22421128489077,35.317084149923176 142.44842257350683,36.634167889133096 137.91747611761093,39.707361690700054 135.27442401833832,42.78055326547474 133.38652966171503,46.292769480030984 131.87621417827904,54.63427132787183 132.2537930496037,59.46355437207967 131.49863530695438,63.85380691057071 131.87621417827904,68.68307945365086 132.2537930496037,88.43913712492213 133.00895079225302,93.2683816649951 135.65200288966298,97.2195776537992 138.29505499079823,100.73174877371639 145.4690535441041,105.12195858219638 158.6843140386045,103.36587520502508 162.83768162317574,101.17076995968819 165.4807337205857,97.2195776537992 167.36862807907164,92.3903376115486 167.74620694853365,87.56109207123518 168.87894356250763,83.17086407961324 167.74620694853365,68.24405490467325 168.1237858198583,49.36595628038049 166.99104920588434,44.536661736667156 164.34799710847437,40.58541665226221 161.3273661378771,37.073195710778236 152.64305209740996,35.75611210800707 148.1121056433767,35.75611210800707 143.95873805880547,36.634167889133096 139.4277916047722,38.39027890609577 136.4071606323123,41.02444406738505 133.38652966171503,44.536661736667156 132.2537930496037,48.92692973045632 131.49863530695438,67.3660056698136 132.63137192092836,77.02453725365922 132.2537930496037,81.853794795461 131.49863530695438,86.24402415053919 134.519266275689,89.75620436295867 138.29505499079823,91.51229337835684 137.53989724628627,95.46349100163206 140.18294934555888,100.29272754304111 144.71389580145478,102.92685424722731 148.48968451283872,103.36587520502508 153.39820984192193,102.92685424722731 161.70494500920177,99.41468494478613 165.1031548511237,96.34153441898525 167.74620694853365,87.56109207123518 168.50136469304562,49.36595628038049 168.1237858198583,45.41471569798887 165.4807337205857,41.46347143454477 162.08252388052642,37.951251219492406 158.30673516727984,35.75611210800707 153.39820984192193,34.87805614480749 145.09147467277944,35.75611210800707 136.4071606323123,40.146389194298536 133.76410853490233,44.536661736667156 132.2537930496037,53.31719318078831 131.87621417827904,64.29283191543072 133.38652966171503,73.51234649680555 132.63137192092836,83.17086407961324 133.38652966171503,91.95131551800296 134.8968451488763,95.90251273289323 137.16231837682426,100.29272754304111 140.18294934555888,103.36587520502508 144.71389580145478,105.12195858219638 153.02063096873462,105.56097931414843 157.55157742463052,104.24391698418185 161.70494500920177,102.04881219333038 165.1031548511237,99.41468494478613 167.36862807907164,95.46349100163206 168.87894356250763,86.24402415053919 168.1237858198583,76.1464898372069 168.87894356250763,48.92692973045632 167.36862807907164,44.975688739679754 165.1031548511237,41.02444406738505 158.30673516727984,35.75611210800707 154.1533675827086,34.43902809591964 149.6224211268127,34.43902809591964 141.31568595953286,37.073195710778236 137.91747611761093,39.707361690700054 132.2537930496037,48.04887649510056 131.12105643562973,52.43914085440338 131.87621417827904,57.7074520830065 131.49863530695438,62.536731626372784 132.2537930496037,76.1464898372069 131.87621417827904,84.48793295398355 132.63137192092836,93.2683816649951 134.141687406227,96.78055605851114 137.16231837682426,100.29272754304111 144.33631693199277,104.68293780647218 148.86726338602602,105.56097931414843 157.55157742463052,104.68293780647218 161.3273661378771,102.48783324286342 164.7255759779364,99.41468494478613 168.50136469304562,91.51229337835684 168.87894356250763,87.12206947663799 168.1237858198583,77.463560893666 168.50136469304562,72.63429835159332 168.87894356250763,53.75621927483007 168.50136469304562,49.80498278560117 166.99104920588434,44.536661736667156 164.7255759779364,40.146389194298536 157.17399855330586,34.87805614480749 152.26547322794795,34.0 142.44842257350683,35.75611210800707 134.8968451488763,41.90249875653535 133.38652966171503,45.8537426115945 132.2537930496037,49.80498278560117 131.12105643562973,58.14647772349417 131.87621417827904,62.975756767205894 131.87621417827904,81.853794795461 131.12105643562973,86.68304683594033 131.87621417827904,91.07327119167894 133.76410853490233,95.90251273289323 139.80537047423422,103.36587520502508 144.33631693199277,105.56097931414843 149.24484225735068,106.0 157.92915629781783,103.80489611718804 165.1031548511237,97.65859920252115 166.99104920588434,93.2683816649951 168.50136469304562,84.48793295398355 168.87894356250763,70.00015282910317 168.87894356250763,65.17088178638369 167.74620694853365,60.780630610883236 168.50136469304562,51.56108834641054 168.1237858198583,47.170823079068214 166.23589146509767,42.78055326547474 160.19462952390313,37.073195710778236 156.0412619393319,34.87805614480749 151.88789435476065,34.0 143.20358031615615,36.19514002185315 139.0502127315849,39.268334140535444 136.02958176285028,41.90249875653535 132.63137192092836,51.122062023263425 131.49863530695438,68.24405490467325 131.87621417827904,86.68304683594033 133.00895079225302,94.58544740406796 134.8968451488763,98.97566357674077 141.31568595953286,104.24391698418185 150.377578869462,105.56097931414843 159.81705065257847,102.92685424722731 166.23589146509767,95.90251273289323 168.1237858198583,88.00011462019756 167.36862807907164,83.60988708259538 168.50136469304562,79.21965500153601 168.1237858198583,70.87820151913911 168.50136469304562,51.122062023263425 167.74620694853365,47.170823079068214 166.23589146509767,42.341526032891124 163.21526049263775,39.268334140535444 155.66368306986988,34.43902809591964 146.22421128489077,34.87805614480749 138.29505499079823,38.82930654613301 133.76410853490233,46.292769480030984 132.63137192092836,50.683035656344146 131.49863530695438,64.73185687419027 132.63137192092836,82.73184103053063 131.49863530695438,87.12206947663799 136.02958176285028,88.87815958308056" stroke="#4dd2ff" stroke-linecap="round" stroke-linejoin="round" stroke-width="0.5"><title>2022-04-19 4.2km</title></polyline><polyline fill="none" points="45.15061152353883,172.1205782154575 41.79334257915616,174.2892409004271 42.53940234333277,179.060294856783 46.269701171666384,181.66268563224003 50.373029882088304,182.9638804141432 55.22241835668683,182.09641727106646 62.30998613126576,178.1928309048526 64.92119530960917,174.72297330247238 67.53240448981524,169.95191440638155 68.27846425399184,166.48204997833818 69.0245240200311,134.38566776085645 68.65149413794279,129.18082584859803 67.15937460586429,124.84345264872536 64.54816542752087,120.50607495708391 56.714537888765335,115.30121579952538 51.86514941230416,114.86747724516317 47.388790821656585,115.30121579952538 42.912432227283716,117.0361695708707 39.1821333989501,119.63859888073057 35.82486445456743,123.10850211139768 33.58668515831232,126.57840246707201 32.467595510184765,130.91577387135476 32.094565626233816,136.12061362620443 31.34850586205721,140.89171105530113 32.094565626233816,145.2290676389821 30.97547597810626,159.97604642855003 31.721535744145513,164.7471166853793 31.34850586205721,169.5181815107353 32.84062539227307,174.2892409004271 37.69001386873424,182.5301488651894 47.388790821656585,186.0 52.23817929625511,186.0 60.44483671709895,181.66268563224003 63.802105659618974,179.494026764296 66.41331484168768,175.5904379724525 67.90543437190354,171.25311282556504 68.27846425399184,166.48204997833818 68.65149413794279,130.91577387135476 67.90543437190354,126.57840246707201 65.66725507564843,122.24102657241747 59.6987769510597,116.16869277507067 50.74605976417661,114.4337386447005 45.52364140562713,115.30121579952538 38.063043750822544,120.50607495708391 35.07880468852818,124.40971508109942 33.21365527436137,128.7470887308009 32.094565626233816,138.28929494926706 32.094565626233816,142.6266542277299 33.21365527436137,147.83147943252698 32.467595510184765,152.6025635227561 32.84062539227307,171.686845542863 33.959715040400624,175.5904379724525 36.94395410269499,179.494026764296 41.04728281497955,182.5301488651894 44.404551757499576,184.2650747927837 48.8809103500098,184.6988061615266 53.730298828333616,184.2650747927837 58.57968730293214,182.9638804141432 61.93695624731481,180.79522222094238 67.90543437190354,174.2892409004271 68.65149413794279,169.95191440638155 68.27846425399184,160.84351415233687 69.0245240200311,142.6266542277299 69.0245240200311,129.61456292076036 67.53240448981524,124.40971508109942 61.190896483138204,117.46990790078416 51.49211953021586,114.0 47.015760937705636,114.86747724516317 37.69001386873424,125.27719017164782 35.82486445456743,132.65072117419913 35.45183457247913,151.73509409325197 36.197894336655736,156.50617373688146 35.82486445456743,165.61458342149854 35.07880468852818,169.5181815107353 39.1821333989501,176.89163464028388 42.53940234333277,179.494026764296 47.015760937705636,181.22895394917578 51.86514941230416,182.5301488651894 60.44483671709895,178.1928309048526 65.29422519356012,170.81938006496057 64.92119530960917,162.14471540087834 66.04028495773673,157.37364218011498 65.29422519356012,130.48203693237156 64.17513554356992,126.14466508012265 61.190896483138204,122.67476436495781 57.46059765294194,120.07233694102615 53.35726894438267,118.33738442743197 48.8809103500098,118.33738442743197 44.777581641450524,119.63859888073057 41.42031269706786,121.8072887356393 38.063043750822544,126.14466508012265 36.197894336655736,130.48203693237156 35.82486445456743,139.59050320507959 36.197894336655736,144.79533218219876 34.70577480643988,149.13268472393975 33.959715040400624,153.90376733150333 36.197894336655736,172.1205782154575 38.063043750822544,175.5904379724525 41.04728281497955,178.62656290270388 45.15061152353883,181.22895394917578 50.373029882088304,182.09641727106646 54.47635859251022,181.22895394917578 58.95271718688309,178.62656290270388 62.30998613126576,175.5904379724525 64.54816542752087,171.686845542863 65.29422519356012,167.78324947552755 64.92119530960917,145.6628030501306 65.66725507564843,132.2169844158925 61.93695624731481,123.54223981220275 58.95271718688309,120.07233694102615 55.22241835668683,117.90364618645981 46.269701171666384,119.20486077293754 41.79334257915616,121.37355085508898 35.82486445456743,129.18082584859803 35.07880468852818,142.19291850132868 35.82486445456743,159.97604642855003 35.07880468852818,169.5181815107353 36.94395410269499,173.85550845274702 39.5551632810384,177.3253667736426 42.912432227283716,179.92775862757117 47.388790821656585,181.66268563224003 56.34150800667703,180.79522222094238 60.817866599187255,178.62656290270388 65.66725507564843,170.81938006496057 65.29422519356012,135.68687722785398 64.17513554356992,127.01213980978355 61.93695624731481,123.54223981220275 54.10332871042192,118.77112262276933 45.52364140562713,117.46990790078416 38.43607363291085,123.97597746877 36.570924220606685,127.87961436016485 35.82486445456743,131.78324761334807 35.82486445456743,140.45797515055165 34.70577480643988,149.5664197304286 35.07880468852818,153.4700327734463 35.07880468852818,167.78324947552755 36.570924220606685,172.55431084195152 39.1821333989501,176.024170239456 42.166372461244464,179.060294856783 45.89667128957808,180.79522222094238 50.373029882088304,182.09641727106646 54.84938847646117,181.22895394917578 62.30998613126576,176.45790246268734 64.92119530960917,172.55431084195152 66.41331484168768,168.21698255138472 65.66725507564843,159.54231249867007 65.29422519356012,131.78324761334807 64.17513554356992,127.44587710686028 61.56392636522651,123.97597746877 58.20665742084384,120.93981292750686 54.10332871042192,119.20486077293754 49.25394023396075,118.77112262276933 45.15061152353883,119.20486077293754 41.04728281497955,121.8072887356393 38.063043750822544,125.27719017164782 35.82486445456743,129.61456292076036 35.07880468852818,139.156767164357 35.07880468852818,168.21698255138472 35.82486445456743,172.1205782154575 40.301223047077656,179.92775862757117 48.8809103500098,182.09641727106646 52.984239062294364,181.66268563224003 57.46059765294194,179.92775862757117 61.190896483138204,177.3253667736426 63.802105659618974,173.85550845274702 65.29422519356012,169.95191440638155 65.66725507564843,164.7471166853793 65.29422519356012,146.53027373785153 64.92119530960917,142.6266542277299 64.92119530960917,128.7470887308009 63.42907577753067,124.40971508109942 59.6987769510597,120.93981292750686 56.34150800667703,118.77112262276933 51.86514941230416,117.90364618645981 47.388790821656585,117.90364618645981 43.28546210937202,119.63859888073057 39.92819316498935,122.24102657241747 37.69001386873424,126.57840246707201 36.197894336655736,131.34951076377183 34.70577480643988,151.73509409325197 35.07880468852818,156.07243944890797 34.70577480643988,161.2772479467094 35.82486445456743,170.81938006496057 41.04728281497955,179.060294856783 44.777581641450524,180.3614904466085 48.8809103500098,181.66268563224003 52.984239062294364,182.09641727106646 57.46059765294194,180.3614904466085 60.44483671709895,177.7590988613665 63.42907577753067,173.85550845274702 66.04028495773673,164.7471166853793 64.54816542752087,150.43388961069286 64.92119530960917,132.65072117419913 64.17513554356992,128.31335156876594 62.30998613126576,124.40971508109942 59.325747068971395,121.37355085508898 55.59544824063778,118.77112262276933 47.388790821656585,118.33738442743197 42.912432227283716,119.63859888073057 39.5551632810384,123.10850211139768 36.94395410269499,126.57840246707201 35.07880468852818,130.91577387135476 35.82486445456743,148.69894967135042 35.07880468852818,153.4700327734463 35.82486445456743,162.14471540087834 35.45183457247913,166.91578318923712 35.82486445456743,170.81938006496057 37.69001386873424,175.5904379724525 41.04728281497955,178.62656290270388 45.52364140562713,180.79522222094238 49.25394023396075,181.66268563224003 53.730298828333616,181.22895394917578 57.83362753689289,179.494026764296 63.802105659618974,172.55431084195152 65.29422519356012,168.21698255138472 65.29422519356012,128.31335156876594 63.05604589544237,124.40971508109942 59.325747068971395,120.93981292750686 55.96847812458873,118.77112262276933 46.64273105375469,119.20486077293754 38.809103516861796,123.97597746877 37.31698398478329,128.31335156876594 37.69001386873424,132.2169844158925 36.94395410269499,136.12061362620443 38.43607363291085,149.13268472393975 38.43607363291085,153.0362981702201" stroke="#4dd2ff" stroke-linecap="round" stroke-linejoin="round" stroke-width="0.5"><title>2022-04-13 4.2km</title></polyline><polyline fill="none" points="135.9266006052494,173.78190484037623 150.9382266253233,183.81819989159703 165.9498526453972,176.40007107099518 169.70275915041566,131.891023945529 168.95217785052955,123.1637046802789 157.3181676827371,114.0 135.17601930350065,122.72733824234456 129.92195019684732,172.0364597835578 147.5606107711792,186.0 165.19927134364843,179.89095684839413 169.32746849954128,171.16373698413372 170.07804980129004,131.01829283172265 163.69810874201357,118.36367138009518 154.69113313034177,115.30910188797861 134.42543800361454,124.4728037212044 131.0478221476078,170.72737551573664 147.18532012030482,185.12728009186685 161.07107418775558,182.94547953130677 168.57688719779253,172.0364597835578 169.32746849954128,130.14556153770536 162.94752744212747,118.36367138009518 154.3158424794674,116.18183625489473 133.67485670372844,123.60007107164711 137.0524725560099,172.47282111644745 148.3111920710653,180.7636778410524 164.0733993910253,172.47282111644745 166.32514329440892,129.70919582247734 161.07107418775558,121.41823865799233 147.18532012030482,119.23640511278063 137.0524725560099,129.2728300630115 135.9266006052494,171.60009840596467 147.93590142205358,182.07275899033993 163.69810874201357,175.0909881591797 167.07572459615767,131.4546584105119 155.44171443022788,117.49093746533617 137.80305385775864,127.09100058535114 136.30189125426114,168.545567500405 146.8100294675678,181.63639865303412 161.07107418775558,178.58187502156943 165.9498526453972,170.72737551573664 167.07572459615767,128.83646425791085 149.43706402368844,117.05457044066861 136.30189125426114,129.70919582247734 136.30189125426114,170.72737551573664 151.31351727433503,182.50911928294227 165.5745619945228,168.545567500405 165.19927134364843,128.40009840857238 150.56293597444892,117.92730444483459 136.67718190699816,127.52736657112837 135.17601930350065,167.6728439773433 141.5559603627771,179.89095684839413 155.81700508110225,181.63639865303412 165.19927134364843,171.60009840596467 165.5745619945228,131.4546584105119 156.19229573383927,118.36367138009518 139.67950711026788,123.60007107164711 137.80305385775864,176.83643195172772 144.93357621878386,181.20003827055916 158.4440396372229,178.1455143210478 165.19927134364843,157.2001476092264 162.5722367912531,124.0364374187775 151.31351727433503,118.80003826878965 139.67950711026788,124.90916997892782 134.42543800361454,165.05467232502997 141.9312510136515,179.4545962852426 153.56526117771864,181.63639865303412 164.0733993910253,175.0909881591797 164.8239806946367,144.10924055241048" stroke="#4dd2ff" stroke-linecap="round" stroke-linejoin="round" stroke-width="0.5"><title>2022-04-12 4.0km</title></polyline><polyline fill="none" points="36.301891257986426,254.21826599212363 39.30421646311879,258.58187502156943 42.68183231540024,261.6363986530341 46.434738820418715,263.3818397335708 50.93822662718594,263.81819989159703 55.441714433953166,263.3818397335708 59.569911589846015,261.6363986530341 62.94752744399011,259.8909568483941 66.32514329813421,256.8364319517277 68.57688720151782,252.90918240277097 69.7027591522783,248.545567500405 70.45334045402706,239.81832414167002 69.7027591522783,235.018332591746 70.07804980315268,211.891023945529 69.32746850326657,203.6000710716471 66.32514329813421,200.1091386671178 57.69345833547413,194.0 53.56526118144393,195.3091018879786 49.81235467642546,194.872734637931 45.68415752053261,194.872734637931 35.551309956237674,202.72733824234456 33.299566054716706,206.6546345539391 33.299566054716706,211.4546584105119 32.17369410209358,215.3819465902634 31.798403453081846,225.41833308897913 30.29724084958434,229.78197193704545 29.171368896961212,238.07287330180407 30.29724084958434,247.23648214899004 29.921950198709965,252.47282111644745 35.17601930722594,259.8909568483941 38.92892581038177,263.3818397335708 47.93590142391622,266.0 55.8170050829649,265.12728009186685 65.19927134737372,260.3273173668422 69.7027591522783,251.60009840596467 69.7027591522783,246.80012027500197 70.82863110303879,241.56377425976098 69.7027591522783,219.30923110991716 70.07804980315268,211.01829283172265 69.7027591522783,206.21826847828925 63.69810874387622,198.80003826878965 54.69113313220441,195.74546909332275 44.933576218783855,196.18183625489473 40.0547977630049,198.36367138009518 34.425438003614545,204.4728037212044 32.92427540384233,209.2728300630115 31.798403453081846,218.43650153232738 31.798403453081846,232.40015307767317 31.047822151333094,237.63651047972962 31.047822151333094,242.00013667531312 31.798403453081846,246.36375835491344 31.047822151333094,251.16373698413372 35.17601930722594,258.58187502156943 38.55363516137004,261.6363986530341 42.68183231540024,264.25456000398844 47.560610773041844,265.5636400678195 51.68880792707205,265.12728009186685 61.071074191480875,262.9454795313068 67.07572459988296,256.4000710709952 68.95217785052955,252.47282111644745 70.07804980315268,238.07287330180407 68.95217785052955,228.90924452850595 69.7027591522783,224.10924055241048 69.7027591522783,210.14556153770536 65.94985264725983,202.29097175924107 63.32281809486449,198.80003826878965 58.444039637222886,198.36367138009518 54.31584248319268,196.61820336990058 45.68415752053261,196.61820336990058 41.18066971376538,197.49093746533617 33.67485670372844,203.6000710716471 32.92427540384233,218.0001366767101 31.798403453081846,221.92741875723004 32.17369410209358,225.8546971771866 34.425438003614545,234.14560626726598 37.42776320874691,252.90918240277097 40.80537906289101,257.2727927863598 44.1829949170351,259.8909568483941 48.68648272380233,261.20003827055916 53.18997053056955,261.20003827055916 57.69345833547413,259.8909568483941 61.82165549322963,256.8364319517277 64.0733993947506,252.90918240277097 65.19927134737372,248.1092057619244 66.32514329813421,238.50923607917503 66.32514329813421,224.10924055241048 67.45101524889469,214.94558141799644 66.70043394714594,209.70919582247734 64.82398069649935,204.90916997892782 61.446364840492606,201.41823865799233 57.3181676864624,199.6727719134651 47.560610773041844,199.23640511278063 42.68183231540024,201.41823865799233 38.92892581038177,205.34553619101644 37.05247255973518,209.70919582247734 36.301891257986426,228.4728807574138 35.92660060711205,251.60009840596467 37.42776320874691,255.52734917588532 40.0547977630049,259.01823567505926 48.3111920747906,262.50911928294227 56.19229573383927,261.20003827055916 60.32049288973212,258.58187502156943 63.69810874387622,255.0909881591797 65.57456199638546,250.72737551573664 65.94985264725983,246.36375835491344 65.57456199638546,242.00013667531312 66.32514329813421,220.18196050683036 65.94985264725983,215.3819465902634 67.07572459988296,211.4546584105119 66.32514329813421,207.09100058535114 63.69810874387622,202.72733824234456 60.32049288973212,199.6727719134651 55.441714433953166,197.9273044448346 50.562935976311564,197.0545704406686 43.05712296627462,200.9818720384501 37.803053859621286,207.09100058535114 36.67718190699816,211.891023945529 35.92660060711205,225.41833308897913 36.67718190699816,238.9455988118425 36.301891257986426,248.545567500405 37.803053859621286,253.345543644391 40.0547977630049,257.2727927863598 43.432413617148995,260.3273173668422 47.18532012030482,262.07275899033993 56.567586386576295,261.20003827055916 61.071074191480875,259.01823567505926 64.44869004376233,255.0909881591797 66.32514329813421,251.16373698413372 65.94985264725983,217.56377177592367 67.07572459988296,208.83646425791085 62.572236793115735,201.41823865799233 58.444039637222886,198.80003826878965 54.31584248319268,197.49093746533617 49.437064023688436,197.0545704406686 44.933576218783855,198.80003826878965 41.18066971376538,201.85460523050278 36.67718190699816,210.14556153770536 35.92660060711205,214.94558141799644 37.05247255973518,237.63651047972962 36.67718190699816,250.72737551573664 40.0547977630049,258.58187502156943 43.05712296627462,260.7636778410524 51.31351727806032,262.9454795313068 59.19462093710899,259.8909568483941 62.572236793115735,256.8364319517277 64.82398069649935,252.90918240277097 65.94985264725983,248.98192919418216 65.57456199638546,239.3819614998065 65.94985264725983,212.7637548763305 65.57456199638546,208.40009840857238 60.32049288973212,200.54550537560135 55.8170050829649,198.80003826878965 50.93822662718594,197.9273044448346 46.434738820418715,198.36367138009518 42.30654166638851,200.9818720384501 36.67718190699816,207.52736657112837 36.301891257986426,211.891023945529 36.301891257986426,229.78197193704545 35.551309956237674,247.6728439773433 36.301891257986426,252.47282111644745 38.55363516137004,256.8364319517277 41.931251015514135,259.8909568483941 46.434738820418715,262.07275899033993 50.93822662718594,262.50911928294227 55.8170050829649,261.6363986530341 60.32049288973212,259.4545962852426 63.32281809486449,255.96371014602482 65.57456199638546,251.60009840596467 65.94985264725983,247.23648214899004 65.19927134737372,229.78197193704545 65.57456199638546,211.4546584105119 63.32281809486449,203.6000710716471 60.32049288973212,200.9818720384501 56.567586386576295,198.36367138009518 52.06409857980907,197.49093746533617 47.93590142391622,198.36367138009518 39.67950711213052,204.0364374187775 37.42776320874691,207.9637325122021 36.67718190699816,211.891023945529 35.551309956237674,234.5819694516249 34.800728656351566,243.3092236542143 35.551309956237674,252.47282111644745 37.803053859621286,256.8364319517277 44.933576218783855,261.6363986530341 49.81235467642546,261.6363986530341 53.94055183045566,260.7636778410524 58.81933028995991,258.1455143210478 64.0733993947506,252.0364597835578 65.19927134737372,247.6728439773433 65.57456199638546,237.2001476092264 65.94985264725983,211.891023945529 65.19927134737372,207.52736657112837 62.94752744399011,204.0364374187775 55.8170050829649,199.23640511278063 51.68880792707205,198.80003826878965 46.81002947315574,199.6727719134651 43.05712296627462,201.41823865799233 39.67950711213052,204.90916997892782 37.05247255973518,209.70919582247734 35.551309956237674,239.81832414167002 34.800728656351566,245.05467232502997 35.92660060711205,253.78190484037623 38.55363516137004,256.8364319517277 42.30654166638851,259.4545962852426 45.68415752053261,261.6363986530341 49.81235467642546,262.50911928294227 53.94055183045566,262.07275899033993 57.69345833547413,260.7636778410524 61.446364840492606,258.58187502156943 64.44869004376233,255.0909881591797 65.94985264725983,250.72737551573664 66.32514329813421,246.36375835491344 65.94985264725983,228.4728807574138 65.19927134737372,224.54560477752239" stroke="#4dd2ff" stroke-linecap="round" stroke-linejoin="round" stroke-width="0.5"><title>2022-04-12 4.1km</title></polyline></svg>