<?xml version="1.0" encoding="utf-8" ?>
<svg baseProfile="full" height="300mm" version="1.1" viewBox="0,0,200,300" width="200mm" xmlns="http://www.w3.org/2000/svg" xmlns:ev="http://www.w3.org/2001/xml-events" xmlns:xlink="http://www.w3.org/1999/xlink"><defs /><rect fill="#222222" height="300" width="200" x="0" y="0" /><text fill="#FFFFFF" style="font-size:12px; font-family:Arial; font-weight:bold;" x="10" y="20">Over 1km Runs</text><text fill="#FFFFFF" style="font-size:4px; font-family:Arial" x="10" y="280">ATHLETE</text><text fill="#FFFFFF" style="font-size:9px; font-family:Arial" x="10" y="290">InzamZ</text><text fill="#FFFFFF" style="font-size:4px; font-family:Arial" x="120" y="280">STATISTICS</text><text fill="#FFFFFF" style="font-size:3px; font-family:Arial" x="120" y="285">Number: 4</text><text fill="#FFFFFF" style="font-size:3px; font-family:Arial" x="120" y="290">Weekly: 2.0</text><text fill="#FFFFFF" style="font-size:3px; font-family:Arial" x="141" y="285">Total: 16.5 km</text><text fill="#FFFFFF" style="font-size:3px; font-family:Arial" x="141" y="290">Avg: 4.1 km</text><text fill="#FFFFFF" style="font-size:3px; font-family:Arial" x="167" y="285">Min: 4.0 km</text><text fill="#FFFFFF" style="font-size:3px; font-family:Arial" x="167" y="290">Max: 4.2 km</text><polyline fill="none" points="42.25671309418976,105.12812556605786 46.92925162613392,107.10372243495658 51.177013928070664,111.05491371778771 55.84955246001482,112.53660960588604 60.097314761951566,112.53660960588604 65.61940575391054,110.561014986597 69.86716805584729,108.09152056276798 73.26537789776921,103.15252787899226 74.96448281779885,98.21353008132428 75.81403527967632,88.82942017866299 75.38925904780626,69.5672420100309 76.23881150968373,58.20745944743976 74.53970658965409,47.835460437927395 71.99104920774698,43.390311101451516 68.59283936582506,39.43906376929954 64.34507706202567,36.96953252470121 58.822986071929336,35.48781316308305 53.725671308115125,35.98171966848895 45.23014670610428,38.945157621987164 40.55760817416012,41.90859373426065 37.1593983322382,46.84764983225614 35.46029341034591,51.29279594682157 35.0355171803385,55.73793791932985 34.18596472032368,99.69522995781153 39.28327948227525,108.09152056276798 42.25671309418976,111.548812398687 47.35402785614133,114.51220340514556 52.026566388085485,115.00610172841698 62.221195911988616,114.01830503204837 71.56627297587693,108.09152056276798 74.53970658965409,103.15252787899226 75.81403527967632,92.78062659827992 74.96448281779885,82.40870276512578 74.53970658965409,65.61601636186242 75.38925904780626,55.24403346097097 74.96448281779885,49.81108103599399 72.41582543775439,44.87202800670639 69.01761559583247,40.92078190250322 64.76985329389572,37.46343887550756 59.672538531944156,35.48781316308305 54.15044753998518,34.5 43.10626555606723,37.957345174625516 39.28327948227525,41.414687843527645 33.76118849031627,49.81108103599399 34.61074095219374,59.68917175149545 33.76118849031627,64.62820943724364 34.61074095219374,75.494074346032 34.61074095219374,80.92699751863256 35.88506964221597,85.8660132153891 34.18596472032368,90.8050237968564 34.18596472032368,95.25012894812971 35.88506964221597,100.18912981357425 38.43372702226043,105.62202486069873 42.25671309418976,110.06711620464921 47.35402785614133,113.03050813172013 52.87611884996295,114.51220340514556 57.548657381907105,115.00610172841698 66.0441819857806,112.04271102836356 72.41582543775439,103.64642737666145 74.96448281779885,98.70743009075522 75.38925904780626,94.2623281609267 75.38925904780626,61.170883593615144 75.81403527967632,56.72574668424204 75.38925904780626,50.798891028389335 74.11493035778403,46.35374445375055 70.2919442858547,41.90859373426065 66.46895821392536,38.45125142484903 61.37164345383644,36.47562612174079 55.42477623000741,35.48781316308305 50.75223769620061,35.98171966848895 46.50447539612651,37.46343887550756 41.4071606323123,40.92078190250322 38.43372702226043,44.378122423775494 36.30984587036073,48.329365665093064 34.61074095219374,57.71355524426326 35.0355171803385,63.146498668473214 34.18596472032368,68.08553277468309 34.61074095219374,73.51846438553184 35.0355171803385,95.74402926536277 35.88506964221597,101.17692937329412 38.85850325226784,105.62202486069873 41.83193686418235,109.5732173700817 49.90268523618579,114.51220340514556 64.76985329389572,112.53660960588604 69.44239182583988,110.06711620464921 72.41582543775439,105.62202486069873 74.53970658965409,100.18912981357425 74.96448281779885,94.75622858013958 76.23881150968373,89.81722208950669 74.96448281779885,73.02456176793203 75.38925904780626,51.78670081589371 74.11493035778403,46.35374445375055 71.14149674773216,41.90859373426065 67.74328690581024,37.957345174625516 57.97343361005187,36.47562612174079 52.87611884996295,36.47562612174079 48.20358031615615,37.46343887550756 43.10626555606723,39.43906376929954 39.70805571228266,42.40249957609922 36.30984587036073,46.35374445375055 35.0355171803385,51.29279594682157 34.18596472032368,72.03675637859851 35.46029341034591,82.90260441042483 35.0355171803385,88.33551914524287 34.18596472032368,93.27452716976404 37.58417456038296,97.2257299083285 41.83193686418235,99.20133005036041 40.98238440416753,103.64642737666145 43.9558180142194,109.07931848615408 49.053132778033614,112.04271102836356 53.300895078107715,112.53660960588604 58.822986071929336,112.04271102836356 68.16806313581765,108.09152056276798 71.99104920774698,104.63422622159123 74.96448281779885,94.75622858013958 75.81403527967632,51.78670081589371 75.38925904780626,47.341555160004646 72.41582543775439,42.896405363921076 68.59283936582506,38.945157621987164 64.34507706202567,36.47562612174079 58.822986071929336,35.48781316308305 49.477909008041024,36.47562612174079 39.70805571228266,41.414687843527645 36.73462210223079,46.35374445375055 35.0355171803385,56.23184232832864 34.61074095219374,68.57943590497598 36.30984587036073,78.95138980867341 35.46029341034591,89.81722208950669 36.30984587036073,99.69522995781153 38.00895079225302,104.14032682450488 40.55760817416012,109.07931848615408 43.9558180142194,112.53660960588604 49.053132778033614,114.51220340514556 58.39820984005928,115.00610172841698 63.49552460387349,113.52440660726279 68.16806313581765,111.05491371778771 71.99104920774698,108.09152056276798 74.53970658965409,103.64642737666145 76.23881150968373,93.27452716976404 75.38925904780626,81.91480106674135 76.23881150968373,51.29279594682157 74.53970658965409,46.84764983225614 71.99104920774698,42.40249957609922 64.34507706202567,36.47562612174079 59.672538531944156,34.993906607851386 54.575223768129945,34.993906607851386 45.23014670610428,37.957345174625516 41.4071606323123,40.92078190250322 35.0355171803385,50.30498605733737 33.76118849031627,55.24403346097097 34.61074095219374,61.170883593615144 34.18596472032368,66.60382307972759 35.0355171803385,81.91480106674135 34.61074095219374,91.29892457323149 35.46029341034591,101.17692937329412 37.1593983322382,105.12812556605786 40.55760817416012,109.07931848615408 48.628356548026204,114.01830503204837 53.725671308115125,115.00610172841698 63.49552460387349,114.01830503204837 67.74328690581024,111.548812398687 71.56627297587693,108.09152056276798 75.81403527967632,99.20133005036041 76.23881150968373,94.2623281609267 75.38925904780626,83.39650600589812 75.81403527967632,77.96358564542606 76.23881150968373,56.72574668424204 75.81403527967632,52.28060563420877 74.11493035778403,46.35374445375055 71.56627297587693,41.414687843527645 63.070748372003436,35.48781316308305 57.548657381907105,34.5 46.50447539612651,36.47562612174079 38.00895079225302,43.390311101451516 36.30984587036073,47.835460437927395 35.0355171803385,52.28060563420877 33.76118849031627,61.66478743869811 34.61074095219374,67.09772636322305 34.61074095219374,88.33551914524287 33.76118849031627,93.76842769095674 34.61074095219374,98.70743009075522 36.73462210223079,104.14032682450488 43.53104178234935,112.53660960588604 48.628356548026204,115.00610172841698 54.15044753998518,115.5 63.92030083574355,113.03050813172013 71.99104920774698,106.11592410271987 74.11493035778403,101.17692937329412 75.81403527967632,91.29892457323149 76.23881150968373,75.00017193285748 76.23881150968373,69.5672420100309 74.96448281779885,64.62820943724364 75.81403527967632,54.25622438965365 75.38925904780626,49.31717596389353 73.26537789776921,44.378122423775494 66.46895821392536,37.957345174625516 61.79641968384385,35.48781316308305 57.12388115003705,34.5 47.35402785614133,36.96953252470121 42.68148932419717,40.42687590839341 39.28327948227525,43.390311101451516 35.46029341034591,53.76231977622956 34.18596472032368,73.02456176793203 34.61074095219374,93.76842769095674 35.88506964221597,102.65862832963467 38.00895079225302,107.59762152377516 45.23014670610428,113.52440660726279 55.42477623000741,115.00610172841698 66.0441819857806,112.04271102836356 73.26537789776921,104.14032682450488 75.38925904780626,95.25012894812971 74.53970658965409,90.31112296832725 75.81403527967632,85.37211187649518 75.38925904780626,75.98797670891508 75.81403527967632,53.76231977622956 74.96448281779885,49.31717596389353 73.26537789776921,43.88421678682789 69.86716805584729,40.42687590839341 61.37164345383644,34.993906607851386 50.75223769620061,35.48781316308305 41.83193686418235,39.932969864457846 36.73462210223079,48.329365665093064 35.46029341034591,53.26841511344537 34.18596472032368,69.07333898358047 35.46029341034591,89.32332115946338 34.18596472032368,94.2623281609267 39.28327948227525,96.23792953090742" stroke="#4dd2ff" stroke-linecap="round" stroke-linejoin="round" stroke-width="0.5"><title>2022-04-19 4.2km</title></polyline><polyline fill="none" points="139.54443796537817,99.88565049273893 135.76751040294766,102.32539601344615 136.6068276371807,107.69283171417192 140.80341381952167,110.62052133632824 145.41965861804783,112.08436546614394 150.87522065266967,111.10846942989156 158.8487343993038,106.71693476848304 161.78634472377598,102.81334496522322 164.72395505197346,97.44590370729566 165.56327228620648,93.54230622621253 166.4025895241648,57.43387623131275 165.98293090611696,51.57842907961458 164.30429643206298,46.69888423010707 161.3666861075908,41.81933432677761 152.55385512672365,35.96386777469888 147.09829309023917,35.47591190086678 142.06238967366517,35.96386777469888 137.02648625709116,37.91569076757878 132.82990007475019,40.843423740938306 129.05297251231968,44.74706487543881 126.53502080403268,48.65070277545601 125.27604494988918,53.53024560539052 124.85638633184135,59.38569033006206 124.01706909574568,64.75317493733019 124.85638633184135,69.6327010942623 123.5974104758352,86.22305223206058 124.43672771379352,91.59050627145916 124.01706909574568,96.95795419951901 125.69570356793702,102.32539601344615 131.15126560255885,111.59641747362912 142.06238967366517,115.5 147.517951708287,115.5 156.75044130720198,110.62052133632824 160.52736886963248,108.18078011041507 163.46497919782996,103.78924271930009 165.1436136700213,98.90975192934275 165.56327228620648,93.54230622621253 165.98293090611696,53.53024560539052 165.1436136700213,48.65070277545601 162.62566195987165,43.77115489449352 155.91112407110631,36.9397793719545 145.83931723609567,34.98795597534627 139.964096583426,35.96386777469888 131.57092422060668,41.81933432677761 128.21365527436137,46.21092946641147 126.11536218598485,51.0904748220928 124.85638633184135,61.825456818100065 124.85638633184135,66.70498600648716 126.11536218598485,72.56041436176747 125.27604494988918,77.92788396356627 125.69570356793702,99.39770123595372 126.95467942021787,103.78924271930009 130.31194836646318,108.18078011041507 134.928193166852,111.59641747362912 138.7051207292825,113.54820914193988 143.74102414399385,114.03615693189204 149.19658618234098,113.54820914193988 154.65214821510017,112.08436546614394 158.42907577939332,109.644624998793 165.1436136700213,102.32539601344615 165.98293090611696,97.44590370729566 165.56327228620648,87.19895342132077 166.4025895241648,66.70498600648716 166.4025895241648,52.06638328637928 164.72395505197346,46.21092946641147 157.58975854329765,38.40364638902247 146.67863447219133,34.5 141.64273105561733,35.47591190086678 131.15126560255885,47.186838943045586 129.05297251231968,55.48206132091582 128.63331389427185,76.95198085485026 129.47263113036752,82.31944545404986 129.05297251231968,92.56640634918585 128.21365527436137,96.95795419951901 132.82990007475019,105.25308897020295 136.6068276371807,108.18078011041507 141.64273105561733,110.13257319293916 147.09829309023917,111.59641747362912 156.75044130720198,106.71693476848304 162.20600334368646,98.42180257290602 161.78634472377598,88.66280482616276 163.04532057791948,83.29534745309502 162.20600334368646,53.04229154903442 160.94702748768032,48.162748215254396 157.58975854329765,44.259109910577536 153.39317236095667,41.331379058770835 148.7769275624305,39.37955748103559 143.74102414399385,39.37955748103559 139.12477934733033,40.843423740938306 135.34785178489983,43.283199827652425 131.57092422060668,48.162748215254396 129.47263113036752,53.04229154903442 129.05297251231968,63.28931610612199 129.47263113036752,69.14474870497361 127.79399666003883,74.02427031472325 126.95467942021787,79.39173824805766 129.47263113036752,99.88565049273893 131.57092422060668,103.78924271930009 134.928193166852,107.2048832657747 139.54443796537817,110.13257319293916 145.41965861804783,111.10846942989156 150.035903416574,110.13257319293916 155.07180683501065,107.2048832657747 158.8487343993038,103.78924271930009 161.3666861075908,99.39770123595372 162.20600334368646,95.00615565991029 161.78634472377598,70.12065343139693 162.62566195987165,54.9941074680537 158.42907577939332,45.23501978907734 155.07180683501065,41.331379058770835 150.87522065266967,38.89160195970908 140.80341381952167,40.35546836955473 135.76751040294766,42.795244711916894 129.05297251231968,51.57842907961458 128.21365527436137,66.21703331451863 129.05297251231968,86.22305223206058 128.21365527436137,96.95795419951901 130.31194836646318,101.83744700951502 133.24955869279802,105.74103762069717 137.02648625709116,108.66872845636681 142.06238967366517,110.62052133632824 152.1341965086758,109.644624998793 157.17009992524981,107.2048832657747 162.62566195987165,98.42180257290602 162.20600334368646,58.89773688139394 160.94702748768032,49.13865728629753 158.42907577939332,45.23501978907734 149.6162448003888,39.8675129506737 139.964096583426,38.40364638902247 131.99058283865452,45.722974652424455 129.89228974841535,50.114566155243665 129.05297251231968,54.50615356536582 129.05297251231968,64.26522204466164 127.79399666003883,74.5122221969068 128.21365527436137,78.90378687065095 128.21365527436137,95.00615565991029 129.89228974841535,100.37359969737008 132.82990007475019,104.27719151973724 136.18716901913285,107.69283171417192 140.38375520147383,109.644624998793 145.41965861804783,111.10846942989156 150.45556203648448,110.13257319293916 158.8487343993038,104.7651402708143 161.78634472377598,100.37359969737008 163.46497919782996,95.49410537071526 162.62566195987165,85.73510156106204 162.20600334368646,54.50615356536582 160.94702748768032,49.626611745450646 158.00941716134548,45.722974652424455 154.23248960077763,42.30728954356164 149.6162448003888,40.35546836955473 144.16068276390433,39.8675129506737 139.54443796537817,40.35546836955473 134.928193166852,43.283199827652425 131.57092422060668,47.186838943045586 129.05297251231968,52.06638328637928 128.21365527436137,62.80136306025088 128.21365527436137,95.49410537071526 129.05297251231968,99.88565049273893 134.08887592889369,108.66872845636681 143.74102414399385,111.10846942989156 148.35726894438267,110.62052133632824 153.39317236095667,108.66872845636681 157.58975854329765,105.74103762069717 160.52736886963248,101.83744700951502 162.20600334368646,97.44590370729566 162.62566195987165,91.59050627145916 162.20600334368646,71.0965579552576 161.78634472377598,66.70498600648716 161.78634472377598,51.0904748220928 160.10771025158465,46.21092946641147 155.91112407110631,42.30728954356164 152.1341965086758,39.8675129506737 147.09829309023917,38.89160195970908 142.06238967366517,38.89160195970908 137.44614487327635,40.843423740938306 133.6692173127085,43.77115489449352 131.15126560255885,48.65070277545601 129.47263113036752,54.01819960959256 127.79399666003883,76.95198085485026 128.21365527436137,81.83149437978864 127.79399666003883,87.68690394004807 129.05297251231968,98.42180257290602 134.928193166852,107.69283171417192 139.12477934733033,109.15667675249279 143.74102414399385,110.62052133632824 148.35726894438267,111.10846942989156 153.39317236095667,109.15667675249279 156.75044130720198,106.22898621903732 160.10771025158465,101.83744700951502 163.04532057791948,91.59050627145916 161.3666861075908,75.4881258122623 161.78634472377598,55.48206132091582 160.94702748768032,50.60252051521093 158.8487343993038,46.21092946641147 155.49146545305848,42.795244711916894 151.29487927258015,39.8675129506737 142.06238967366517,39.37955748103559 137.02648625709116,40.843423740938306 133.24955869279802,44.74706487543881 130.31194836646318,48.65070277545601 128.21365527436137,53.53024560539052 129.05297251231968,73.53631838038564 128.21365527436137,78.90378687065095 129.05297251231968,88.66280482616276 128.63331389427185,94.03025608789176 129.05297251231968,98.42180257290602 131.15126560255885,103.78924271930009 134.928193166852,107.2048832657747 139.964096583426,109.644624998793 144.16068276390433,110.62052133632824 149.19658618234098,110.13257319293916 153.81283098086715,108.18078011041507 160.52736886963248,100.37359969737008 162.20600334368646,95.49410537071526 162.20600334368646,50.60252051521093 159.68805163353682,46.21092946641147 155.49146545305848,42.30728954356164 151.71453789062798,39.8675129506737 141.22307243570685,40.35546836955473 132.410241458565,45.722974652424455 130.73160698451102,50.60252051521093 131.15126560255885,54.9941074680537 130.31194836646318,59.38569033006206 131.99058283865452,74.02427031472325 131.99058283865452,78.41583544155583" stroke="#4dd2ff" stroke-linecap="round" stroke-linejoin="round" stroke-width="0.5"><title>2022-04-13 4.2km</title></polyline><polyline fill="none" points="39.16742568090558,251.75464294524863 56.05550495348871,263.045474877581 72.94358422607183,254.70007995469496 77.16560404375196,204.62740193819627 76.32120008207858,194.80916776508093 63.23293864354491,184.5 38.323021717369556,194.31825552275404 32.41219397261739,249.7910172562115 52.255687119439244,265.5 72.09918026253581,258.6273264545016 76.74340206198394,248.80920410715044 77.58780602738261,203.64557943539694 70.41037233546376,189.40913030225784 60.27752477116883,185.97273962385952 37.47861775383353,196.28190418612212 33.678799917921424,248.3182974550873 51.83348513580859,264.5181901031174 67.45495846308768,262.06366447219625 75.89899809844792,249.7910172562115 76.74340206198394,202.6637567295693 69.56596837192774,189.40913030225784 59.85532279126346,186.9545657862909 36.63421379216015,195.30007995525375 40.43403162620962,250.28192375600338 53.10009108111262,259.60913757095113 70.83257431536913,250.28192375600338 73.36578620783985,202.17284529982135 67.45495846308768,192.84551848983392 51.83348513580859,190.39095575129613 40.43403162620962,201.6819338207133 39.16742568090558,249.30011070659384 52.67788909934461,261.0818538637832 70.41037233546376,253.22736167907715 74.21019017137587,204.13649071147665 61.12192873470485,188.42730464832857 41.278435591608286,199.22737565869465 39.58962766267359,245.8637634376064 51.41128315217793,260.59094848437235 67.45495846308768,257.15460939891636 72.94358422607183,248.3182974550873 74.21019017137587,201.19102228991687 54.36669702641666,187.93639174569398 39.58962766267359,202.17284529982135 39.58962766267359,248.3182974550873 56.47770693525672,261.57275919336826 72.52138224430382,245.8637634376064 72.09918026253581,200.70011070976034 55.633302971720695,188.91821750020608 40.01182964630425,199.71828739205375 38.323021717369556,244.88194947410375 45.500455409288406,258.6273264545016 61.544130716472864,260.59094848437235 72.09918026253581,249.30011070659384 72.52138224430382,204.13649071147665 61.96633270010352,189.40913030225784 43.3894454985857,195.30007995525375 41.278435591608286,255.19098594551906 49.300273245200515,260.1000430537388 64.4995445907116,256.6637036111206 72.09918026253581,233.10016606003046 69.14376639015973,195.7909920956008 56.47770693525672,189.90004305215552 43.3894454985857,196.77281622588634 37.47861775383353,241.93650636542588 45.92265739105642,258.13642082037404 59.01091882586479,260.59094848437235 70.83257431536913,253.22736167907715 71.67697828263044,218.37289562122896" stroke="#4dd2ff" stroke-linecap="round" stroke-linejoin="round" stroke-width="0.5"><title>2022-04-12 4.0km</title></polyline><polyline fill="none" points="129.5896276626736,252.24554924108088 132.96724351868033,257.15460939891636 136.76706135459244,260.59094848437235 140.98908117227256,262.5545696998015 146.0555049534887,263.045474877581 151.1219287365675,262.5545696998015 155.76615053601563,260.59094848437235 159.56596837192774,258.6273264545016 163.36578620783985,255.19098594551906 165.89899809844792,250.77283020317554 167.16560404375196,245.8637634376064 168.01000800915062,236.0456146588549 167.16560404375196,230.64562416542321 167.58780602551997,204.62740193819627 166.7434020638466,195.30007995525375 163.36578620783985,191.37278100010008 153.65514062531292,184.5 149.0109188258648,185.97273962385952 144.78889900818467,185.48182646743953 140.14467720873654,185.48182646743953 128.74522369913757,194.31825552275404 126.2120118085295,198.7364638731815 126.2120118085295,204.13649071147665 124.94540586322546,208.55468991352245 124.52320388145745,219.84562472486869 122.8343959543854,224.7547184289433 121.56779000908136,234.08198246452957 122.8343959543854,244.39104241738096 122.41219397261739,250.28192375600338 128.3230217192322,258.6273264545016 132.54504153504968,262.5545696998015 142.67788910120726,265.5 151.54413071647286,264.5181901031174 162.09918026439846,259.1182320374064 167.16560404375196,249.30011070659384 167.16560404375196,243.90013530896977 168.432209989056,238.00924604199827 167.16560404375196,212.97288499819115 167.58780602551997,203.64557943539694 167.16560404375196,198.24555203784257 160.41037233546376,189.90004305215552 150.27752477303147,186.4636527299881 139.30027324520051,186.9545657862909 133.8116474803537,189.40913030225784 127.47861775383353,196.28190418612212 125.78980982862413,201.6819338207133 124.52320388145745,211.99106422392651 124.52320388145745,227.70017221197486 123.67879991792142,233.59107428928837 123.67879991792142,238.50015375949442 124.52320388145745,243.40922814887017 123.67879991792142,248.80920410715044 128.3230217192322,257.15460939891636 132.1228395551443,260.59094848437235 136.76706135459244,263.5363800046034 142.2556871175766,265.0090950760059 146.89990891702473,264.5181901031174 157.45495846308768,262.06366447219625 164.21019017137587,254.70007995469496 166.32120008021593,250.28192375600338 167.58780602551997,234.08198246452957 166.32120008021593,223.77290009474382 167.16560404375196,218.37289562122896 167.16560404375196,202.6637567295693 162.94358422607183,193.82734322873875 159.98817035369575,189.90004305215552 154.4995445907116,189.40913030225784 149.85532279126346,187.44547879090533 140.14467720873654,187.44547879090533 135.0782534275204,188.42730464832857 126.63421379029751,195.30007995525375 125.78980982862413,211.50015376135707 124.52320388145745,215.91834610141814 124.94540586322546,220.3365343241021 127.47861775383353,229.66380705032498 130.85623360797763,250.77283020317554 134.65605144388974,255.6818918841891 138.45586927980185,258.6273264545016 143.52229306288064,260.1000430537388 148.58871684595942,260.1000430537388 153.65514062531292,258.6273264545016 158.2993624266237,255.19098594551906 160.83257431723177,250.77283020317554 162.09918026439846,245.3728564819321 163.36578620783985,234.5728905890137 163.36578620783985,218.37289562122896 164.63239215314388,208.06377909518778 163.78798818960786,202.17284529982135 161.6769782807678,196.77281622588634 157.8771604448557,192.84551848983392 153.23293864540756,190.88186840247363 142.2556871175766,190.39095575129613 136.76706135459244,192.84551848983392 132.54504153504968,197.2637282148935 130.43403162807226,202.17284529982135 129.5896276626736,223.28199085174128 129.16742568090558,249.30011070659384 130.85623360797763,253.71826782263815 133.8116474803537,257.6455151345581 143.10009108111262,261.57275919336826 151.96633269824088,260.1000430537388 156.610554497689,257.15460939891636 160.41037233546376,253.22736167907715 162.52138224430382,248.3182974550873 162.94358422607183,243.40922814887017 162.52138224430382,238.50015375949442 163.36578620783985,213.95470557035878 162.94358422607183,208.55468991352245 164.21019017137587,204.13649071147665 163.36578620783985,199.22737565869465 160.41037233546376,194.31825552275404 156.610554497689,190.88186840247363 151.1219287365675,188.91821750020608 145.6333029717207,187.93639174569398 137.1892633344978,192.35460604308173 131.27843558974564,199.22737565869465 130.0118296444416,204.62740193819627 129.16742568090558,219.84562472486869 130.0118296444416,235.0637986632064 129.5896276626736,245.8637634376064 131.27843558974564,251.26373659959063 133.8116474803537,255.6818918841891 137.61146531812847,259.1182320374064 141.83348513394594,261.0818538637832 152.38853468187153,260.1000430537388 157.45495846308768,257.6455151345581 161.25477629713714,253.22736167907715 163.36578620783985,248.80920410715044 162.94358422607183,211.00924324756488 164.21019017137587,201.19102228991687 159.14376639015973,192.84551848983392 154.4995445907116,189.90004305215552 149.85532279126346,188.42730464832857 144.36669702641666,187.93639174569398 139.30027324520051,189.90004305215552 135.0782534275204,193.3364308839664 130.0118296444416,202.6637567295693 129.16742568090558,208.06377909518778 130.43403162807226,233.59107428928837 130.0118296444416,248.3182974550873 133.8116474803537,257.15460939891636 137.1892633344978,259.60913757095113 146.47770693525672,262.06366447219625 155.34394855238497,258.6273264545016 159.14376639015973,255.19098594551906 161.6769782807678,250.77283020317554 162.94358422607183,246.35467034298927 162.52138224430382,235.55470668710768 162.94358422607183,205.60922423563898 162.52138224430382,200.70011070976034 156.610554497689,191.86369354696944 151.54413071647286,189.90004305215552 146.0555049534887,188.91821750020608 140.98908117227256,189.40913030225784 136.34485937282443,192.35460604308173 130.0118296444416,199.71828739205375 129.5896276626736,204.62740193819627 129.5896276626736,224.7547184289433 128.74522369913757,244.88194947410375 129.5896276626736,250.28192375600338 132.1228395551443,255.19098594551906 135.92265739105642,258.6273264545016 140.98908117227256,261.0818538637832 146.0555049534887,261.57275919336826 151.54413071647286,260.59094848437235 156.610554497689,258.13642082037404 159.98817035369575,254.2091739140451 162.52138224430382,249.30011070659384 162.94358422607183,244.39104241738096 162.09918026439846,224.7547184289433 162.52138224430382,204.13649071147665 159.98817035369575,195.30007995525375 156.610554497689,192.35460604308173 152.38853468187153,189.40913030225784 147.3221109006554,188.42730464832857 142.67788910120726,189.40913030225784 133.38944550044835,195.7909920956008 130.85623360797763,200.20919907605276 130.0118296444416,204.62740193819627 128.74522369913757,230.1547156330198 127.90081973560154,239.97287661070004 128.74522369913757,250.28192375600338 131.27843558974564,255.19098594551906 139.30027324520051,260.59094848437235 144.78889900818467,260.59094848437235 149.4331208076328,259.60913757095113 154.9217465724796,256.6637036111206 160.83257431723177,249.7910172562115 162.09918026439846,244.88194947410375 162.52138224430382,233.10016606003046 162.94358422607183,204.62740193819627 162.09918026439846,199.71828739205375 159.56596837192774,195.7909920956008 151.54413071647286,190.39095575129613 146.89990891702473,189.90004305215552 141.41128315404058,190.88186840247363 137.1892633344978,192.84551848983392 133.38944550044835,196.77281622588634 130.43403162807226,202.17284529982135 128.74522369913757,236.0456146588549 127.90081973560154,241.93650636542588 129.16742568090558,251.75464294524863 132.1228395551443,255.19098594551906 136.34485937282443,258.13642082037404 140.14467720873654,260.59094848437235 144.78889900818467,261.57275919336826 149.4331208076328,261.0818538637832 153.65514062531292,259.60913757095113 157.8771604448557,257.15460939891636 161.25477629713714,253.22736167907715 162.94358422607183,248.3182974550873 163.36578620783985,243.40922814887017 162.94358422607183,223.28199085174128 162.09918026439846,218.8638053741306" stroke="#4dd2ff" stroke-linecap="round" stroke-linejoin="round" stroke-width="0.5"><title>2022-04-12 4.1km</title></polyline></svg>