<?xml version="1.0" encoding="utf-8" ?>
<svg baseProfile="full" height="300mm" version="1.1" viewBox="0,0,200,300" width="200mm" xmlns="http://www.w3.org/2000/svg" xmlns:ev="http://www.w3.org/2001/xml-events" xmlns:xlink="http://www.w3.org/1999/xlink"><defs /><rect fill="#222222" height="300" width="200" x="0" y="0" /><text fill="#FFFFFF" style="font-size:12px; font-family:Arial; font-weight:bold;" x="10" y="20">Over 1km Runs</text><text fill="#FFFFFF" style="font-size:4px; font-family:Arial" x="10" y="280">ATHLETE</text><text fill="#FFFFFF" style="font-size:9px; font-family:Arial" x="10" y="290">InzamZ</text><text fill="#FFFFFF" style="font-size:4px; font-family:Arial" x="120" y="280">STATISTICS</text><text fill="#FFFFFF" style="font-size:3px; font-family:Arial" x="120" y="285">Number: 1</text><text fill="#FFFFFF" style="font-size:3px; font-family:Arial" x="120" y="290">Weekly: 1.0</text><text fill="#FFFFFF" style="font-size:3px; font-family:Arial" x="141" y="285">Total: 4.0 km</text><text fill="#FFFFFF" style="font-size:3px; font-family:Arial" x="141" y="290">Avg: 4.0 km</text><text fill="#FFFFFF" style="font-size:3px; font-family:Arial" x="167" y="285">Min: 4.0 km</text><text fill="#FFFFFF" style="font-size:3px; font-family:Arial" x="167" y="290">Max: 4.0 km</text><polyline fill="none" points="68.33485136181116,203.50928589049727 102.11100990697742,226.090949755162 135.88716845214367,209.4001599093899 144.3312080875039,109.25480387639254 142.64240016415715,89.61833553016186 116.46587728708982,69.0 66.64604343473911,88.63651104550809 54.824387945234776,199.58203451242298 94.51137423887849,231.0 134.19836052507162,217.2546529090032 143.4868041239679,197.61840821430087 145.17561205476522,107.29115887079388 130.82074467092752,78.81826060451567 110.55504954233766,71.94547924771905 64.95723550766706,92.56380837224424 57.35759983584285,196.6365949101746 93.66697027161717,229.03638020623475 124.90991692617536,224.1273289443925 141.79799619689584,199.58203451242298 143.4868041239679,105.32751345913857 129.13193674385548,78.81826060451567 109.71064558252692,73.90913157258183 63.26842758432031,90.6001599105075 70.86806325241923,200.56384751200676 96.20018216222525,219.21827514190227 131.66514863073826,200.56384751200676 136.7315724156797,104.3456905996427 124.90991692617536,85.69103697966784 93.66697027161717,80.78191150259227 70.86806325241923,103.36386764142662 68.33485136181116,198.60022141318768 95.35577819868922,222.16370772756636 130.82074467092752,206.4547233581543 138.42038034275174,108.27298142295331 112.2438574694097,76.85460929665715 72.55687118321657,98.45475131738931 69.17925532534719,191.7275268752128 92.82256630435586,221.1818969687447 124.90991692617536,214.30921879783273 135.88716845214367,196.6365949101746 138.42038034275174,102.38204457983375 98.73339405283332,75.87278349138796 69.17925532534719,104.3456905996427 69.17925532534719,196.6365949101746 102.95541387051344,223.1455183867365 135.04276448860765,191.7275268752128 134.19836052507162,101.40022141952068 101.26660594344139,77.83643500041217 70.0236592926085,99.4365747841075 66.64604343473911,189.7638989482075 81.00091081857681,217.2546529090032 113.08826143294573,221.1818969687447 134.19836052507162,198.60022141318768 135.04276448860765,108.27298142295331 113.93266540020704,78.81826060451567 76.7788909971714,90.6001599105075 72.55687118321657,210.38197189103812 88.60054649040103,220.20008610747755 118.99908918142319,213.32740722224116 134.19836052507162,166.20033212006092 128.28753278031945,91.58198419120163 102.95541387051344,79.80008610431105 76.7788909971714,93.54563245177269 64.95723550766706,183.87301273085177 81.84531478211284,216.27284164074808 108.02183765172958,221.1818969687447 131.66514863073826,206.4547233581543 133.3539565652609,136.74579124245793" stroke="#4DD2FF" stroke-linecap="round" stroke-linejoin="round" stroke-width="0.5"><title>2022-04-12 4.0km</title></polyline></svg>